<svg version="1.1" id="Layer_1"
    xmlns="http://www.w3.org/2000/svg"
    xmlns:xlink="http://www.w3.org/1999/xlink" x="0px" y="0px" width="274.702px" height="57.03px" viewBox="0 0 274.702 57.03" enable-background="new 0 0 274.702 57.03" xml:space="preserve">
    <g>
        <g>
            <path fill="#FFFFFF" d="M137.643,2.812c0.335,0,0.574,0.009,0.715,0.025c0.144,0.018,0.35,0.053,0.625,0.108l0.808,0.068
			c0.097,0,0.214-0.022,0.344-0.068l0.491-0.133c0.088,0,0.138,0.045,0.147,0.133l-0.119,0.612c-0.028,0.21-0.04,0.409-0.04,0.595
			l0.04,0.691l0.038,0.624c0,0.028-0.015,0.064-0.045,0.112c-0.033,0.05-0.085,0.119-0.167,0.206
			c-0.077,0.087-0.15,0.14-0.211,0.157c-0.07,0-0.128-0.092-0.174-0.276c-0.024-0.187-0.076-0.409-0.16-0.67
			c-0.077-0.261-0.302-0.501-0.668-0.73c-0.367-0.225-0.876-0.339-1.53-0.339c-0.506,0-0.89,0.11-1.154,0.327
			c-0.268,0.217-0.4,0.512-0.4,0.88c0,0.594,0.624,1.094,1.872,1.5c1.246,0.408,2.095,0.729,2.546,0.96
			c0.45,0.236,0.677,0.86,0.677,1.879c0,0.963-0.435,1.739-1.3,2.325c-0.868,0.59-1.809,0.884-2.827,0.884
			c-0.246,0-0.431-0.007-0.551-0.019c-0.119-0.015-0.31-0.043-0.576-0.088l-0.795-0.104c-0.186,0-0.329,0.011-0.432,0.045
			c-0.102,0.03-0.176,0.051-0.225,0.067c-0.048,0.009-0.136,0.044-0.259,0.098c-0.073,0-0.111-0.057-0.119-0.169v-0.585l0.054-0.587
			c0-0.124-0.005-0.255-0.013-0.398c-0.009-0.142-0.027-0.287-0.054-0.433c-0.026-0.325-0.057-0.558-0.091-0.704
			c0-0.095,0.052-0.222,0.159-0.377c0.114-0.139,0.204-0.209,0.265-0.209c0.043,0,0.084,0.037,0.119,0.108
			c0.035,0.076,0.079,0.292,0.132,0.651c0.053,0.362,0.332,0.715,0.836,1.064c0.504,0.351,1.133,0.522,1.884,0.522
			c0.531,0,0.964-0.148,1.299-0.454c0.337-0.306,0.504-0.721,0.504-1.241c0-0.547-0.424-0.963-1.272-1.248l-2.493-0.781
			c-0.885-0.458-1.328-1.172-1.328-2.135c0-0.787,0.368-1.466,1.101-2.037C136.028,3.097,136.811,2.812,137.643,2.812z"/>
            <path fill="#FFFFFF" d="M144.473,8.621l-0.438,1.248c-0.204,0.584-0.304,1.065-0.304,1.447c0,0.183,0.093,0.344,0.284,0.477
			c0.207,0.115,0.429,0.171,0.665,0.171c0.12,0,0.181,0.057,0.191,0.173c-0.01,0.018-0.019,0.035-0.028,0.061
			c-0.008,0.022-0.027,0.046-0.051,0.071l-0.189,0.172c-0.053,0.053-0.134,0.09-0.242,0.109l-1.389-0.079l-0.763,0.036l-0.788,0.042
			c-0.115,0-0.178-0.047-0.187-0.134c0.009-0.025,0.024-0.058,0.042-0.093c0.016-0.036,0.054-0.095,0.118-0.181
			c0.062-0.081,0.195-0.166,0.398-0.253c0.203-0.081,0.414-0.379,0.637-0.891l1.141-2.692l1.248-3.092
			c0.291-0.756,0.439-1.195,0.439-1.322c0-0.068-0.016-0.138-0.043-0.213l-0.038-0.141c0.006-0.023,0.012-0.041,0.012-0.049
			c0-0.009,0.026-0.048,0.072-0.12c0.048-0.073,0.103-0.112,0.166-0.121c0.097,0,0.193-0.008,0.293-0.027
			c0.097-0.021,0.25-0.068,0.464-0.146c0.211-0.076,0.39-0.174,0.542-0.296l0.426-0.365c0.086,0,0.158,0.068,0.212,0.2
			c0.052,0.134,0.078,0.331,0.078,0.597c0,0.133,0.245,0.819,0.73,2.057l1.578,3.779c0.557,1.282,0.926,2.045,1.104,2.287
			c0.174,0.245,0.33,0.404,0.463,0.485c0.106,0.045,0.234,0.088,0.385,0.131c0.132,0.017,0.198,0.067,0.198,0.147
			c0,0.044-0.052,0.128-0.153,0.252c-0.103,0.124-0.19,0.19-0.271,0.2l-2.27-0.079l-1.617,0.079c-0.078,0-0.124-0.047-0.132-0.134
			c0.008-0.017,0.021-0.046,0.038-0.08c0.018-0.035,0.062-0.101,0.134-0.198c0.07-0.099,0.167-0.173,0.293-0.226
			c0.123-0.052,0.23-0.149,0.316-0.295c0.089-0.138,0.132-0.29,0.132-0.449c0-0.246-0.117-0.685-0.357-1.311l-0.438-1.235H144.473z
			 M144.857,7.665h2.347l-1.167-2.923L144.857,7.665z"/>
            <path fill="#FFFFFF" d="M153.838,9.772c0,0.87,0.075,1.45,0.224,1.75c0.151,0.296,0.456,0.441,0.916,0.441
			c0.283,0,0.434,0.054,0.452,0.161c-0.018,0.024-0.04,0.062-0.068,0.104c-0.026,0.046-0.075,0.106-0.145,0.186
			c-0.07,0.079-0.142,0.124-0.212,0.134l-1.578-0.079l-0.73,0.036l-0.69,0.042c-0.106,0-0.169-0.042-0.186-0.122
			c0.008-0.017,0.019-0.045,0.032-0.085c0.014-0.041,0.063-0.11,0.147-0.212c0.083-0.102,0.183-0.156,0.298-0.167
			c0.116-0.008,0.229-0.146,0.338-0.416c0.113-0.272,0.167-0.703,0.167-1.293V5.371c0-0.707-0.065-1.19-0.199-1.452
			c-0.133-0.26-0.39-0.393-0.77-0.393c-0.132,0-0.2-0.04-0.2-0.132c0-0.069,0.065-0.164,0.193-0.278
			c0.128-0.115,0.263-0.171,0.404-0.171l0.53,0.039l0.465,0.042l0.624-0.013c0.132,0,0.323-0.022,0.572-0.068
			c0.087,0,0.194,0.081,0.318,0.237l0.728,1.222l3.727,5.625l0.027-4.671c0-0.714-0.097-1.2-0.292-1.451
			c-0.194-0.251-0.535-0.38-1.02-0.38c-0.188,0-0.279-0.05-0.279-0.158c0.017-0.026,0.04-0.062,0.066-0.105
			c0.025-0.045,0.077-0.103,0.152-0.179c0.073-0.076,0.156-0.122,0.245-0.14l0.492,0.039l0.861,0.042l0.717-0.013l0.73-0.068
			c0.131,0,0.201,0.046,0.212,0.132c-0.011,0.029-0.02,0.056-0.028,0.087c-0.008,0.03-0.042,0.094-0.098,0.192
			c-0.059,0.097-0.155,0.18-0.288,0.252c-0.133,0.07-0.236,0.261-0.316,0.577c-0.08,0.313-0.12,1.004-0.12,2.073v2.813l0.054,2.124
			c0,0.203-0.107,0.381-0.319,0.53l-0.424,0.278c-0.028,0.027-0.079,0.077-0.155,0.159c-0.073,0.08-0.166,0.18-0.275,0.307
			c-0.111,0.122-0.234,0.192-0.366,0.21c-0.105,0-0.301-0.222-0.583-0.668l-0.636-1.021l-3.688-5.45L153.838,9.772z"/>
            <path fill="#FFFFFF" d="M172.819,4.217l0.171-0.755c0.07-0.346,0.205-0.517,0.411-0.517l0.464,0.053l0.783,0.028l1.327-0.081
			c0.107,0,0.169,0.053,0.185,0.161c-0.008,0.025-0.02,0.048-0.034,0.065c-0.014,0.017-0.042,0.057-0.084,0.12l-0.214,0.253
			c-0.159,0.043-0.294,0.128-0.403,0.256c-0.111,0.129-0.167,0.316-0.167,0.563c0,0.161,0.08,0.835,0.241,2.032l0.329,2.546
			l0.094,1.285c0,0.672,0.09,1.117,0.278,1.333c0.186,0.219,0.41,0.353,0.676,0.405c0.231,0.028,0.354,0.08,0.372,0.161
			c-0.038,0.062-0.071,0.108-0.108,0.139c-0.033,0.029-0.069,0.085-0.104,0.164c-0.036,0.079-0.141,0.122-0.317,0.122l-0.905-0.042
			l-0.728-0.036l-1.988,0.079c-0.132,0-0.2-0.056-0.2-0.16c0.027-0.072,0.05-0.121,0.068-0.146l0.17-0.227
			c0.214-0.043,0.398-0.153,0.559-0.325c0.158-0.171,0.236-0.413,0.236-0.723c0-0.276-0.078-1.135-0.236-2.585
			c-0.163-1.451-0.24-2.478-0.24-3.079l-1.665,4.911c-0.027,0.07-0.066,0.236-0.119,0.504c-0.052,0.176-0.1,0.38-0.141,0.614
			c-0.039,0.23-0.154,0.404-0.345,0.516c-0.19,0.108-0.396,0.276-0.624,0.497c-0.222,0.219-0.359,0.333-0.404,0.333
			c-0.106,0-0.239-0.239-0.396-0.718l-0.758-2.34l-1.47-4.3l-0.348,3.063l-0.177,2.547c0,0.333,0.094,0.591,0.279,0.767
			c0.186,0.18,0.401,0.266,0.651,0.266c0.184,0,0.302,0.011,0.35,0.028c0.048,0.017,0.082,0.061,0.1,0.133
			c-0.019,0.024-0.041,0.062-0.068,0.104c-0.025,0.046-0.076,0.106-0.151,0.186c-0.076,0.079-0.134,0.124-0.179,0.134l-1.474-0.079
			l-1.405,0.079c-0.096,0-0.154-0.042-0.173-0.122c0.011-0.026,0.019-0.055,0.027-0.085c0.008-0.029,0.042-0.095,0.101-0.193
			c0.056-0.097,0.16-0.173,0.317-0.231c0.156-0.057,0.295-0.259,0.417-0.603c0.107-0.336,0.28-1.541,0.516-3.61l0.349-3.447
			c0-0.239-0.053-0.406-0.161-0.496c-0.106-0.094-0.273-0.159-0.498-0.193c-0.226-0.036-0.341-0.082-0.35-0.147
			c0-0.078,0.062-0.174,0.185-0.285c0.124-0.11,0.222-0.173,0.292-0.191l0.57,0.053l0.758,0.028l0.675-0.042l0.491-0.039
			c0.116,0,0.203,0.098,0.265,0.291l0.189,0.689l1.881,5.678L172.819,4.217z"/>
            <path fill="#FFFFFF" d="M179.901,8.621l-0.436,1.248c-0.206,0.584-0.307,1.065-0.307,1.447c0,0.183,0.095,0.344,0.287,0.477
			c0.207,0.115,0.43,0.171,0.665,0.171c0.117,0,0.18,0.057,0.188,0.173c-0.008,0.018-0.017,0.035-0.024,0.061
			c-0.009,0.022-0.028,0.046-0.055,0.071l-0.186,0.172c-0.053,0.053-0.133,0.09-0.242,0.109l-1.389-0.079l-0.76,0.036l-0.791,0.042
			c-0.114,0-0.176-0.047-0.184-0.134c0.008-0.025,0.019-0.058,0.037-0.093c0.018-0.036,0.06-0.095,0.121-0.181
			c0.062-0.081,0.195-0.166,0.397-0.253c0.204-0.081,0.417-0.379,0.639-0.891L179,8.305l1.246-3.092
			c0.292-0.756,0.437-1.195,0.437-1.322c0-0.068-0.011-0.138-0.037-0.213l-0.042-0.141c0.009-0.023,0.016-0.041,0.016-0.049
			c0-0.009,0.021-0.048,0.072-0.12c0.05-0.073,0.103-0.112,0.166-0.121c0.098,0,0.195-0.008,0.292-0.027
			c0.098-0.021,0.252-0.068,0.464-0.146c0.214-0.076,0.395-0.174,0.545-0.296l0.423-0.365c0.088,0,0.159,0.068,0.214,0.2
			c0.052,0.134,0.079,0.331,0.079,0.597c0,0.133,0.243,0.819,0.729,2.057l1.579,3.779c0.557,1.282,0.923,2.045,1.1,2.287
			c0.177,0.245,0.332,0.404,0.466,0.485c0.104,0.045,0.233,0.088,0.382,0.131c0.134,0.017,0.201,0.067,0.201,0.147
			c0,0.044-0.049,0.128-0.154,0.252c-0.101,0.124-0.192,0.19-0.272,0.2l-2.268-0.079l-1.617,0.079c-0.081,0-0.125-0.047-0.135-0.134
			c0.01-0.017,0.024-0.046,0.042-0.08c0.016-0.035,0.06-0.101,0.131-0.198c0.071-0.099,0.168-0.173,0.292-0.226
			c0.126-0.052,0.229-0.149,0.32-0.295c0.087-0.138,0.132-0.29,0.132-0.449c0-0.246-0.121-0.685-0.36-1.311l-0.436-1.235H179.901z
			 M180.286,7.665h2.347l-1.167-2.923L180.286,7.665z"/>
            <path fill="#FFFFFF" d="M188.722,3.979c-0.532,0-0.927,0.104-1.187,0.313c-0.261,0.207-0.408,0.434-0.438,0.683
			c-0.03,0.248-0.059,0.4-0.087,0.458c-0.027,0.055-0.083,0.133-0.172,0.23l-0.186,0.173c-0.035,0.017-0.079,0.033-0.133,0.052
			c-0.061,0-0.091-0.084-0.091-0.252l0.039-0.583l0.04-1.022l-0.04-0.684l-0.039-0.483c0.018-0.027,0.037-0.055,0.053-0.087
			c0.017-0.029,0.065-0.08,0.146-0.147c0.08-0.069,0.148-0.11,0.211-0.128c0.099,0.119,0.263,0.238,0.498,0.351
			c0.235,0.114,0.532,0.171,0.895,0.171h4.285c0.423,0,0.804-0.056,1.14-0.167l0.757-0.354c0.105,0,0.167,0.053,0.185,0.16
			l-0.051,0.605l-0.028,0.55l0.079,1.538c0,0.063-0.054,0.16-0.164,0.286c-0.111,0.129-0.198,0.194-0.26,0.194
			c-0.052,0-0.101-0.041-0.145-0.12l-0.081-0.641c0-0.156-0.032-0.301-0.1-0.427c-0.066-0.129-0.188-0.272-0.37-0.433
			c-0.182-0.157-0.532-0.238-1.054-0.238h-0.916v6.899c0,0.326,0.072,0.589,0.218,0.789c0.145,0.198,0.404,0.297,0.775,0.297
			c0.24,0,0.359,0.041,0.359,0.122c0,0.065-0.046,0.138-0.133,0.218l-0.159,0.167l-0.067,0.079l-1.977-0.079l-1.949,0.079
			c-0.097,0-0.145-0.037-0.145-0.109c0-0.042,0.036-0.127,0.112-0.258c0.076-0.127,0.171-0.201,0.286-0.219
			c0.114-0.018,0.257-0.14,0.43-0.364c0.173-0.224,0.26-0.466,0.26-0.721V3.979H188.722z"/>
            <path fill="#FFFFFF" d="M196.574,4.537c0-0.381-0.076-0.65-0.238-0.809c-0.159-0.155-0.352-0.246-0.577-0.274
			c-0.225-0.026-0.349-0.067-0.366-0.121c0-0.07,0.059-0.165,0.175-0.281c0.114-0.118,0.203-0.183,0.264-0.199l1.791,0.172
			l5.175-0.214c0.08,0,0.137,0.034,0.171,0.104l0.078,0.781c0.027,0.242,0.07,0.499,0.133,0.768l0.095,0.609
			c0,0.061-0.048,0.155-0.146,0.275c-0.099,0.119-0.177,0.185-0.242,0.193c-0.023-0.023-0.046-0.054-0.063-0.088
			c-0.016-0.034-0.059-0.125-0.119-0.27c-0.08-0.249-0.207-0.463-0.372-0.643c-0.169-0.18-0.424-0.318-0.764-0.417
			c-0.34-0.097-0.823-0.147-1.453-0.147h-1.551v2.336l1.5,0.08c0.565,0,0.968-0.06,1.206-0.172l0.597-0.32
			c0.082,0,0.125,0.063,0.135,0.188l-0.042,0.41l-0.039,0.44c0,0.232,0.012,0.477,0.039,0.733l0.042,0.374
			c0,0.117-0.025,0.208-0.069,0.279l-0.12,0.122l-0.118,0.146c-0.045,0.053-0.104,0.089-0.173,0.107
			c-0.053,0-0.093-0.023-0.12-0.067l-0.077-0.469c-0.028-0.27-0.14-0.47-0.333-0.607c-0.194-0.141-0.55-0.21-1.061-0.21L198.563,7.4
			v3.276c0,0.302,0.155,0.52,0.465,0.65c0.326,0.126,0.898,0.188,1.712,0.188c0.752,0,1.271-0.131,1.558-0.389
			c0.286-0.257,0.467-0.521,0.543-0.792c0.075-0.271,0.136-0.419,0.18-0.45l0.145-0.052c0.062-0.027,0.111-0.051,0.146-0.077
			c0.037-0.021,0.094-0.042,0.171-0.06c0.08,0,0.12,0.059,0.12,0.176l-0.224,1.117c-0.036,0.195-0.064,0.378-0.081,0.544
			c-0.017,0.165-0.025,0.333-0.025,0.504c0,0.135-0.037,0.25-0.107,0.35c-0.069,0.097-0.178,0.152-0.318,0.162l-3.925-0.079
			l-3.051,0.079c-0.169,0-0.252-0.042-0.252-0.123c0-0.072,0.032-0.158,0.099-0.262c0.067-0.101,0.161-0.176,0.286-0.219
			c0.115-0.028,0.237-0.14,0.372-0.341c0.132-0.202,0.198-0.452,0.198-0.744V4.537z"/>
            <path fill="#FFFFFF" d="M208.26,12.681c-1.158,0-2.111-0.421-2.86-1.266c-0.747-0.846-1.119-1.927-1.119-3.245
			c0-1.476,0.518-2.737,1.559-3.788c1.04-1.047,2.188-1.571,3.44-1.571c1.143,0,2.091,0.424,2.846,1.275
			c0.756,0.849,1.135,1.927,1.135,3.233c0,1.487-0.519,2.752-1.557,3.794C210.664,12.159,209.517,12.681,208.26,12.681z
			 M208.763,4.086c-0.725,0-1.263,0.219-1.618,0.655c-0.354,0.437-0.585,0.869-0.702,1.293c-0.114,0.424-0.173,0.933-0.173,1.525
			c0,1.21,0.241,2.156,0.717,2.833c0.478,0.676,1.076,1.013,1.794,1.013c0.731,0,1.33-0.292,1.794-0.875
			c0.463-0.584,0.694-1.451,0.694-2.599c0-1.22-0.241-2.167-0.728-2.838C210.055,4.422,209.462,4.086,208.763,4.086z"/>
            <path fill="#FFFFFF" d="M221.896,2.812c0.414,0,0.703,0.016,0.86,0.046c0.16,0.031,0.281,0.053,0.366,0.064
			c0.083,0.018,0.23,0.051,0.431,0.103c0.125,0,0.23-0.017,0.318-0.048c0.088-0.032,0.162-0.055,0.216-0.066
			c0.048-0.013,0.14-0.047,0.262-0.1c0.107,0,0.159,0.084,0.159,0.252l-0.051,0.584l-0.027,0.756c0,0.249,0.014,0.491,0.038,0.729
			l0.04,0.479c-0.028,0.053-0.047,0.09-0.064,0.107l-0.188,0.145c-0.07,0.052-0.132,0.09-0.187,0.106
			c-0.078,0-0.156-0.189-0.236-0.571c-0.062-0.361-0.247-0.698-0.55-1.009c-0.307-0.31-0.828-0.464-1.561-0.464
			c-0.714,0-1.259,0.267-1.637,0.803c-0.376,0.536-0.563,1.391-0.563,2.567c0,1.344,0.239,2.34,0.716,2.984
			c0.477,0.646,1.112,0.968,1.91,0.968c0.504,0,0.991-0.148,1.458-0.45l1.22-0.982c0.126,0,0.188,0.05,0.188,0.146
			c0,0.063-0.021,0.143-0.052,0.24l-0.067,0.251c0,0.098-0.012,0.183-0.034,0.259c-0.021,0.075-0.304,0.307-0.847,0.696
			c-0.546,0.389-1.041,0.699-1.489,0.928c-0.444,0.23-0.894,0.346-1.345,0.346c-1.026,0-1.89-0.428-2.593-1.28
			c-0.704-0.854-1.056-2.02-1.056-3.496c0-1.282,0.436-2.451,1.302-3.51C219.699,3.342,220.719,2.812,221.896,2.812z"/>
            <path fill="#FFFFFF" d="M229.577,12.681c-1.16,0-2.115-0.421-2.861-1.266c-0.748-0.846-1.12-1.927-1.12-3.245
			c0-1.476,0.521-2.737,1.559-3.788c1.04-1.047,2.184-1.571,3.443-1.571c1.139,0,2.089,0.424,2.844,1.275
			c0.755,0.849,1.133,1.927,1.133,3.233c0,1.487-0.52,2.752-1.559,3.794C231.979,12.159,230.832,12.681,229.577,12.681z
			 M230.079,4.086c-0.726,0-1.265,0.219-1.618,0.655c-0.354,0.437-0.588,0.869-0.703,1.293c-0.113,0.424-0.173,0.933-0.173,1.525
			c0,1.21,0.241,2.156,0.717,2.833c0.479,0.676,1.075,1.013,1.79,1.013c0.734,0,1.335-0.292,1.8-0.875
			c0.463-0.584,0.697-1.451,0.697-2.599c0-1.22-0.246-2.167-0.73-2.838C231.371,4.422,230.777,4.086,230.079,4.086z"/>
            <path fill="#FFFFFF" d="M238.158,9.019c0,0.707,0.199,1.285,0.604,1.725c0.401,0.444,0.948,0.664,1.638,0.664
			c0.761,0,1.361-0.229,1.797-0.688c0.439-0.46,0.655-1.155,0.655-2.084V5.477c0-0.735-0.083-1.222-0.245-1.465
			c-0.162-0.242-0.408-0.391-0.735-0.443c-0.326-0.053-0.496-0.103-0.504-0.147c0-0.061,0.061-0.149,0.188-0.266l0.158-0.171
			c0.026-0.026,0.065-0.039,0.12-0.039l1.765,0.081h0.343c0.07,0,0.148,0,0.229,0c0.088-0.018,0.149-0.028,0.183-0.028
			c0.115,0,0.252-0.017,0.411-0.053c0.168,0,0.25,0.056,0.25,0.171c0,0.063-0.041,0.142-0.129,0.24
			c-0.09,0.097-0.214,0.174-0.372,0.233c-0.16,0.056-0.304,0.215-0.432,0.477c-0.128,0.26-0.191,0.709-0.191,1.345v3.396
			c0,1.186-0.335,2.127-1.01,2.827c-0.672,0.698-1.733,1.048-3.182,1.048c-0.946,0-1.771-0.266-2.472-0.798
			c-0.707-0.529-1.057-1.228-1.057-2.096V5.146c0-0.522-0.067-0.911-0.2-1.168c-0.13-0.255-0.341-0.402-0.627-0.431
			c-0.287-0.031-0.432-0.092-0.432-0.179c0-0.043,0.053-0.124,0.159-0.239c0.107-0.115,0.204-0.176,0.292-0.186l0.676,0.053
			l0.688,0.028l2.286-0.081c0.175,0,0.273,0.053,0.291,0.161c-0.01,0.016-0.023,0.044-0.04,0.077
			c-0.019,0.036-0.062,0.1-0.125,0.187c-0.065,0.087-0.196,0.167-0.387,0.24c-0.189,0.07-0.336,0.202-0.437,0.396
			c-0.103,0.194-0.151,0.544-0.151,1.049V9.019z"/>
            <path fill="#FFFFFF" d="M247.443,9.772c0,0.87,0.074,1.45,0.225,1.75c0.149,0.296,0.454,0.441,0.917,0.441
			c0.282,0,0.432,0.054,0.449,0.161c-0.018,0.024-0.039,0.062-0.068,0.104c-0.024,0.046-0.071,0.106-0.143,0.186
			c-0.073,0.079-0.143,0.124-0.214,0.134l-1.575-0.079l-0.731,0.036l-0.691,0.042c-0.104,0-0.167-0.042-0.184-0.122
			c0.008-0.017,0.019-0.045,0.03-0.085c0.016-0.041,0.063-0.11,0.15-0.212c0.08-0.102,0.183-0.156,0.298-0.167
			c0.113-0.008,0.226-0.146,0.335-0.416c0.111-0.272,0.168-0.703,0.168-1.293V5.371c0-0.707-0.067-1.19-0.199-1.452
			c-0.135-0.26-0.391-0.393-0.77-0.393c-0.131,0-0.199-0.04-0.199-0.132c0-0.069,0.065-0.164,0.192-0.278
			c0.127-0.115,0.264-0.171,0.404-0.171l0.532,0.039l0.464,0.042l0.62-0.013c0.134,0,0.326-0.022,0.572-0.068
			c0.088,0,0.195,0.081,0.318,0.237l0.728,1.222l3.728,5.625l0.027-4.671c0-0.714-0.098-1.2-0.291-1.451
			c-0.197-0.251-0.536-0.38-1.024-0.38c-0.185,0-0.279-0.05-0.279-0.158c0.02-0.026,0.044-0.062,0.068-0.105
			c0.027-0.045,0.08-0.103,0.155-0.179c0.074-0.076,0.154-0.122,0.243-0.14l0.493,0.039l0.86,0.042l0.716-0.013l0.731-0.068
			c0.131,0,0.202,0.046,0.211,0.132c-0.01,0.029-0.019,0.056-0.027,0.087c-0.006,0.03-0.043,0.094-0.099,0.192
			c-0.057,0.097-0.152,0.18-0.286,0.252c-0.132,0.07-0.237,0.261-0.318,0.577c-0.078,0.313-0.117,1.004-0.117,2.073v2.813
			l0.052,2.124c0,0.203-0.105,0.381-0.317,0.53l-0.426,0.278c-0.025,0.027-0.078,0.077-0.151,0.159
			c-0.074,0.08-0.17,0.18-0.278,0.307c-0.113,0.122-0.236,0.192-0.366,0.21c-0.107,0-0.302-0.222-0.583-0.668l-0.638-1.021
			l-3.688-5.45L247.443,9.772z"/>
            <path fill="#FFFFFF" d="M257.56,3.979c-0.53,0-0.926,0.104-1.186,0.313c-0.26,0.207-0.407,0.434-0.435,0.683
			c-0.033,0.248-0.059,0.4-0.088,0.458c-0.027,0.055-0.082,0.133-0.174,0.23l-0.184,0.173c-0.039,0.017-0.08,0.033-0.133,0.052
			c-0.063,0-0.093-0.084-0.093-0.252l0.038-0.583l0.043-1.022l-0.043-0.684l-0.038-0.483c0.018-0.027,0.037-0.055,0.053-0.087
			c0.019-0.029,0.064-0.08,0.146-0.147c0.079-0.069,0.149-0.11,0.21-0.128c0.1,0.119,0.264,0.238,0.499,0.351
			c0.236,0.114,0.533,0.171,0.895,0.171h4.286c0.422,0,0.803-0.056,1.14-0.167l0.757-0.354c0.104,0,0.165,0.053,0.186,0.16
			l-0.055,0.605l-0.027,0.55l0.082,1.538c0,0.063-0.056,0.16-0.169,0.286c-0.108,0.129-0.196,0.194-0.258,0.194
			c-0.051,0-0.101-0.041-0.145-0.12l-0.079-0.641c0-0.156-0.033-0.301-0.1-0.427c-0.067-0.129-0.191-0.272-0.371-0.433
			c-0.182-0.157-0.533-0.238-1.055-0.238h-0.916v6.899c0,0.326,0.074,0.589,0.22,0.789c0.146,0.198,0.404,0.297,0.772,0.297
			c0.242,0,0.362,0.041,0.362,0.122c0,0.065-0.046,0.138-0.136,0.218l-0.159,0.167l-0.067,0.079l-1.972-0.079l-1.951,0.079
			c-0.099,0-0.147-0.037-0.147-0.109c0-0.042,0.036-0.127,0.112-0.258c0.075-0.127,0.17-0.201,0.286-0.219
			c0.116-0.018,0.261-0.14,0.433-0.364c0.173-0.224,0.258-0.466,0.258-0.721V3.979H257.56z"/>
            <path fill="#FFFFFF" d="M269.474,10.904c0,0.371,0.072,0.642,0.217,0.809c0.146,0.168,0.355,0.25,0.632,0.25
			c0.283,0,0.422,0.057,0.422,0.173c0,0.063-0.047,0.146-0.144,0.253c-0.099,0.104-0.191,0.16-0.278,0.16l-0.892-0.042l-0.741-0.036
			l-2.056,0.079c-0.123,0-0.183-0.051-0.183-0.148c0-0.052,0.032-0.126,0.098-0.224c0.065-0.099,0.196-0.19,0.392-0.28
			c0.196-0.089,0.334-0.253,0.418-0.497c0.083-0.245,0.126-0.878,0.126-1.902c0-0.258-0.048-0.499-0.133-0.716
			c-0.09-0.226-0.397-0.812-0.928-1.766c-0.532-0.956-0.915-1.627-1.147-2.017c-0.234-0.388-0.455-0.722-0.658-1
			c-0.202-0.28-0.454-0.437-0.756-0.473c-0.167,0-0.251-0.04-0.251-0.132c0-0.069,0.062-0.159,0.181-0.264
			c0.118-0.104,0.232-0.167,0.339-0.186l1.815,0.081l1.963-0.081c0.159,0,0.24,0.068,0.24,0.2c-0.009,0.026-0.021,0.046-0.034,0.065
			c-0.013,0.017-0.041,0.051-0.081,0.099c-0.04,0.05-0.071,0.085-0.091,0.112c-0.021,0.027-0.042,0.065-0.061,0.105l-0.464,0.175
			c-0.17,0.052-0.252,0.207-0.252,0.464c0,0.188,0.119,0.526,0.357,1.02l1.34,2.534l1.443-2.611
			c0.204-0.383,0.309-0.686,0.309-0.918c0-0.219-0.063-0.387-0.188-0.496c-0.124-0.111-0.346-0.168-0.674-0.168
			c-0.159,0-0.241-0.029-0.241-0.09c0-0.071,0.065-0.167,0.188-0.284c0.122-0.12,0.223-0.189,0.291-0.208l0.625,0.081h0.688
			l1.58-0.081c0.051,0,0.107,0.015,0.167,0.046c0.055,0.034,0.089,0.069,0.098,0.115c0,0.044-0.038,0.117-0.113,0.219
			c-0.075,0.101-0.213,0.192-0.417,0.279c-0.201,0.083-0.395,0.239-0.578,0.468c-0.179,0.232-0.545,0.837-1.104,1.821l-1.152,2.054
			c-0.205,0.381-0.31,0.712-0.31,0.995V10.904z"/>
            <path fill="#FFFFFF" d="M140.262,18.307c0.692,0,1.175,0.025,1.439,0.076c0.264,0.053,0.467,0.09,0.609,0.111
			c0.136,0.022,0.377,0.08,0.717,0.166c0.209,0,0.385-0.024,0.533-0.078c0.148-0.048,0.265-0.088,0.354-0.109
			c0.087-0.024,0.237-0.078,0.442-0.167c0.177,0,0.268,0.141,0.268,0.419l-0.091,0.974l-0.043,1.262c0,0.414,0.024,0.82,0.066,1.217
			l0.068,0.797c-0.045,0.089-0.083,0.15-0.11,0.178l-0.313,0.243c-0.119,0.091-0.221,0.146-0.311,0.176
			c-0.132,0-0.264-0.316-0.398-0.951c-0.103-0.603-0.41-1.167-0.917-1.681c-0.51-0.518-1.377-0.776-2.6-0.776
			c-1.197,0-2.108,0.446-2.735,1.34c-0.628,0.894-0.941,2.32-0.941,4.283c0,2.243,0.398,3.904,1.197,4.98
			c0.794,1.078,1.857,1.614,3.186,1.614c0.84,0,1.653-0.246,2.435-0.75l2.038-1.638c0.205,0,0.312,0.082,0.312,0.243
			c0,0.103-0.033,0.237-0.089,0.4l-0.112,0.42c0,0.16-0.018,0.304-0.056,0.43c-0.035,0.127-0.508,0.515-1.414,1.163
			c-0.91,0.648-1.737,1.166-2.481,1.549c-0.743,0.385-1.496,0.575-2.249,0.575c-1.708,0-3.151-0.71-4.325-2.134
			c-1.173-1.427-1.76-3.367-1.76-5.835c0-2.14,0.724-4.089,2.169-5.855C136.593,19.188,138.296,18.307,140.262,18.307z"/>
            <path fill="#FFFFFF" d="M152.967,34.775c-1.932,0-3.523-0.705-4.769-2.114c-1.25-1.409-1.872-3.213-1.872-5.41
			c0-2.466,0.867-4.574,2.601-6.321c1.735-1.749,3.649-2.623,5.744-2.623c1.905,0,3.488,0.708,4.749,2.124
			c1.261,1.418,1.894,3.219,1.894,5.401c0,2.479-0.867,4.59-2.602,6.331C156.978,33.907,155.064,34.775,152.967,34.775z
			 M153.809,20.431c-1.212,0-2.111,0.365-2.702,1.094c-0.59,0.733-0.979,1.452-1.172,2.161c-0.193,0.709-0.289,1.559-0.289,2.546
			c0,2.022,0.398,3.598,1.196,4.725c0.796,1.13,1.793,1.695,2.989,1.695c1.224,0,2.224-0.489,3-1.461
			c0.773-0.973,1.161-2.42,1.161-4.339c0-2.039-0.408-3.614-1.217-4.739C155.965,20.993,154.975,20.431,153.809,20.431z"/>
            <path fill="#FFFFFF" d="M174.462,20.652l0.287-1.262c0.119-0.573,0.349-0.862,0.688-0.862l0.775,0.09l1.306,0.042l2.213-0.132
			c0.178,0,0.281,0.09,0.311,0.265c-0.017,0.045-0.035,0.083-0.055,0.112c-0.026,0.03-0.07,0.094-0.145,0.197l-0.354,0.423
			c-0.266,0.071-0.492,0.218-0.677,0.432c-0.185,0.213-0.274,0.527-0.274,0.94c0,0.266,0.132,1.395,0.396,3.387l0.555,4.25
			l0.154,2.149c0,1.121,0.155,1.861,0.464,2.224c0.31,0.364,0.687,0.587,1.13,0.673c0.383,0.046,0.589,0.136,0.621,0.267
			c-0.062,0.104-0.122,0.182-0.179,0.234c-0.06,0.052-0.119,0.143-0.178,0.275c-0.057,0.132-0.236,0.201-0.53,0.201l-1.506-0.068
			l-1.219-0.066l-3.319,0.134c-0.221,0-0.333-0.09-0.333-0.265c0.046-0.119,0.081-0.203,0.112-0.243l0.288-0.379
			c0.354-0.07,0.664-0.253,0.928-0.544c0.268-0.285,0.401-0.687,0.401-1.205c0-0.456-0.134-1.896-0.401-4.316
			c-0.265-2.42-0.399-4.133-0.399-5.136l-2.778,8.194c-0.045,0.118-0.111,0.399-0.199,0.839c-0.089,0.295-0.166,0.637-0.232,1.028
			c-0.066,0.389-0.26,0.68-0.577,0.861c-0.315,0.185-0.664,0.461-1.04,0.827c-0.376,0.369-0.601,0.553-0.674,0.553
			c-0.178,0-0.4-0.398-0.665-1.191l-1.263-3.909l-2.457-7.177l-0.576,5.111l-0.296,4.251c0,0.56,0.157,0.985,0.467,1.284
			c0.308,0.296,0.67,0.439,1.083,0.439c0.312,0,0.507,0.02,0.588,0.046c0.081,0.03,0.137,0.104,0.166,0.22
			c-0.029,0.046-0.066,0.104-0.111,0.178c-0.045,0.077-0.131,0.177-0.254,0.311c-0.126,0.132-0.226,0.205-0.299,0.222l-2.458-0.134
			l-2.345,0.134c-0.163,0-0.259-0.068-0.287-0.201c0.012-0.045,0.028-0.091,0.043-0.143c0.016-0.053,0.069-0.161,0.167-0.321
			c0.095-0.162,0.271-0.292,0.53-0.387c0.258-0.097,0.492-0.435,0.697-1.01c0.178-0.557,0.466-2.565,0.864-6.019l0.575-5.756
			c0-0.398-0.088-0.676-0.264-0.83c-0.178-0.155-0.455-0.264-0.834-0.322c-0.372-0.058-0.571-0.137-0.583-0.244
			c0-0.131,0.101-0.29,0.308-0.474c0.205-0.187,0.368-0.29,0.487-0.321l0.953,0.09l1.262,0.042l1.126-0.066l0.823-0.066
			c0.191,0,0.336,0.163,0.44,0.487l0.312,1.151l3.142,9.476L174.462,20.652z"/>
            <path fill="#FFFFFF" d="M195.407,20.652l0.285-1.262c0.119-0.573,0.35-0.862,0.688-0.862l0.774,0.09l1.307,0.042l2.212-0.132
			c0.177,0,0.281,0.09,0.311,0.265c-0.014,0.045-0.033,0.083-0.055,0.112c-0.023,0.03-0.07,0.094-0.145,0.197l-0.354,0.423
			c-0.265,0.071-0.491,0.218-0.675,0.432c-0.186,0.213-0.277,0.527-0.277,0.94c0,0.266,0.134,1.395,0.401,3.387l0.551,4.25
			l0.156,2.149c0,1.121,0.153,1.861,0.462,2.224c0.311,0.364,0.688,0.587,1.131,0.673c0.382,0.046,0.59,0.136,0.618,0.267
			c-0.058,0.104-0.117,0.182-0.174,0.234c-0.062,0.052-0.12,0.143-0.177,0.275c-0.062,0.132-0.238,0.201-0.532,0.201l-1.506-0.068
			l-1.217-0.066l-3.319,0.134c-0.224,0-0.334-0.09-0.334-0.265c0.045-0.119,0.08-0.203,0.11-0.243l0.289-0.379
			c0.354-0.07,0.662-0.253,0.929-0.544c0.265-0.285,0.398-0.687,0.398-1.205c0-0.456-0.134-1.896-0.399-4.316
			c-0.266-2.42-0.4-4.133-0.4-5.136l-2.779,8.194c-0.044,0.118-0.11,0.399-0.198,0.839c-0.089,0.295-0.167,0.637-0.232,1.028
			c-0.067,0.389-0.259,0.68-0.577,0.861c-0.315,0.185-0.665,0.461-1.041,0.827c-0.376,0.369-0.601,0.553-0.674,0.553
			c-0.178,0-0.398-0.398-0.664-1.191l-1.262-3.909l-2.458-7.177l-0.577,5.111l-0.295,4.251c0,0.56,0.156,0.985,0.467,1.284
			c0.31,0.296,0.67,0.439,1.084,0.439c0.311,0,0.505,0.02,0.586,0.046c0.079,0.03,0.136,0.104,0.166,0.22
			c-0.03,0.046-0.064,0.104-0.11,0.178c-0.047,0.077-0.13,0.177-0.256,0.311c-0.125,0.132-0.225,0.205-0.297,0.222l-2.46-0.134
			l-2.347,0.134c-0.161,0-0.257-0.068-0.287-0.201c0.017-0.045,0.03-0.091,0.045-0.143c0.016-0.053,0.069-0.161,0.167-0.321
			c0.095-0.162,0.271-0.292,0.53-0.387c0.26-0.097,0.493-0.435,0.698-1.01c0.176-0.557,0.467-2.565,0.863-6.019l0.576-5.756
			c0-0.398-0.089-0.676-0.265-0.83c-0.176-0.155-0.455-0.264-0.832-0.322c-0.375-0.058-0.571-0.137-0.587-0.244
			c0-0.131,0.105-0.29,0.311-0.474c0.207-0.187,0.37-0.29,0.487-0.321l0.952,0.09l1.261,0.042l1.129-0.066l0.819-0.066
			c0.192,0,0.34,0.163,0.443,0.487l0.31,1.151l3.145,9.476L195.407,20.652z"/>
            <path fill="#FFFFFF" d="M207.293,28.667c0,1.18,0.334,2.14,1.006,2.876c0.671,0.738,1.582,1.107,2.734,1.107
			c1.271,0,2.271-0.384,2.999-1.151c0.732-0.769,1.097-1.925,1.097-3.477v-5.265c0-1.229-0.136-2.042-0.409-2.45
			c-0.271-0.403-0.685-0.652-1.23-0.741c-0.545-0.086-0.826-0.168-0.841-0.244c0-0.102,0.104-0.25,0.309-0.44l0.266-0.289
			c0.045-0.044,0.111-0.066,0.202-0.066l2.943,0.132h0.576c0.118,0,0.243,0,0.375,0c0.149-0.029,0.252-0.042,0.311-0.042
			c0.192,0,0.418-0.03,0.686-0.09c0.281,0,0.419,0.096,0.419,0.289c0,0.103-0.072,0.234-0.223,0.397
			c-0.145,0.163-0.352,0.29-0.616,0.388c-0.266,0.095-0.508,0.362-0.722,0.794c-0.214,0.436-0.318,1.185-0.318,2.249v5.666
			c0,1.98-0.563,3.551-1.682,4.716c-1.122,1.167-2.895,1.748-5.313,1.748c-1.583,0-2.957-0.441-4.13-1.327
			c-1.173-0.888-1.758-2.053-1.758-3.498v-7.749c0-0.87-0.112-1.519-0.334-1.948c-0.219-0.429-0.571-0.667-1.051-0.72
			c-0.481-0.051-0.72-0.151-0.72-0.298c0-0.073,0.089-0.206,0.267-0.398c0.175-0.191,0.339-0.295,0.487-0.31l1.129,0.09l1.15,0.042
			l3.811-0.132c0.292,0,0.453,0.09,0.484,0.265c-0.014,0.03-0.036,0.076-0.066,0.133c-0.031,0.061-0.101,0.165-0.21,0.31
			c-0.112,0.147-0.325,0.28-0.642,0.4c-0.318,0.118-0.563,0.337-0.731,0.664c-0.17,0.323-0.253,0.907-0.253,1.749V28.667z"/>
            <path fill="#FFFFFF" d="M223.122,29.923c0,1.452,0.125,2.426,0.375,2.917c0.253,0.493,0.759,0.738,1.528,0.738
			c0.471,0,0.723,0.09,0.751,0.267c-0.028,0.046-0.064,0.104-0.112,0.178c-0.04,0.077-0.124,0.177-0.242,0.311
			c-0.119,0.132-0.234,0.205-0.354,0.222l-2.633-0.134l-1.218,0.066l-1.15,0.068c-0.177,0-0.281-0.068-0.312-0.201
			c0.013-0.028,0.032-0.077,0.055-0.143c0.021-0.068,0.104-0.185,0.243-0.356c0.143-0.17,0.308-0.257,0.499-0.277
			c0.191-0.015,0.381-0.246,0.563-0.696c0.185-0.451,0.276-1.167,0.276-2.158v-8.147c0-1.182-0.11-1.988-0.332-2.423
			c-0.221-0.436-0.646-0.653-1.284-0.653c-0.22,0-0.331-0.072-0.331-0.223c0-0.116,0.107-0.272,0.319-0.462
			c0.214-0.193,0.44-0.289,0.676-0.289l0.885,0.066l0.777,0.066l1.039-0.023c0.222,0,0.541-0.035,0.954-0.109
			c0.145,0,0.322,0.132,0.532,0.398l1.216,2.037l6.221,9.387l0.043-7.792c0-1.196-0.163-2.005-0.488-2.425
			c-0.322-0.421-0.891-0.63-1.705-0.63c-0.308,0-0.463-0.087-0.463-0.266c0.03-0.044,0.067-0.104,0.11-0.176
			c0.045-0.073,0.127-0.174,0.256-0.299c0.125-0.125,0.26-0.202,0.409-0.232l0.817,0.066l1.44,0.066l1.196-0.023l1.216-0.109
			c0.222,0,0.34,0.075,0.354,0.221c-0.013,0.044-0.027,0.092-0.042,0.144c-0.014,0.052-0.072,0.159-0.166,0.322
			c-0.096,0.163-0.255,0.301-0.478,0.421c-0.221,0.118-0.4,0.438-0.529,0.96c-0.132,0.526-0.201,1.679-0.201,3.465v4.692l0.09,3.542
			c0,0.339-0.179,0.635-0.53,0.886l-0.712,0.465c-0.042,0.042-0.128,0.132-0.253,0.264c-0.124,0.136-0.281,0.304-0.466,0.51
			c-0.181,0.208-0.384,0.325-0.606,0.354c-0.177,0-0.501-0.37-0.973-1.111l-1.065-1.702l-6.155-9.098L223.122,29.923z"/>
            <path fill="#FFFFFF" d="M241.716,31.765c0,0.618,0.133,1.076,0.396,1.375c0.253,0.221,0.584,0.369,0.998,0.439
			c0.354,0,0.546,0.06,0.577,0.179c0,0.12-0.097,0.274-0.288,0.465c-0.192,0.193-0.34,0.302-0.443,0.333l-1.062-0.09l-1.681-0.044
			l-2.989,0.134c-0.281,0-0.421-0.068-0.421-0.201c0-0.117,0.054-0.262,0.163-0.43c0.112-0.171,0.27-0.294,0.477-0.365
			c0.193-0.048,0.398-0.231,0.622-0.564c0.219-0.335,0.332-0.745,0.332-1.231V21.318c0-0.634-0.135-1.081-0.398-1.342
			c-0.266-0.256-0.587-0.409-0.965-0.452c-0.375-0.044-0.58-0.11-0.608-0.202c0-0.115,0.097-0.271,0.287-0.464
			c0.19-0.188,0.341-0.3,0.443-0.331l1.042,0.09l1.704,0.042l2.989-0.132c0.282,0,0.421,0.066,0.421,0.198s-0.06,0.289-0.178,0.466
			c-0.118,0.176-0.274,0.289-0.464,0.333c-0.193,0.042-0.398,0.231-0.621,0.562c-0.22,0.333-0.332,0.745-0.332,1.231V31.765z"/>
            <path fill="#FFFFFF" d="M248.358,20.254c-0.887,0-1.547,0.174-1.98,0.521c-0.435,0.348-0.681,0.728-0.733,1.14
			c-0.05,0.412-0.099,0.668-0.142,0.762c-0.046,0.097-0.138,0.228-0.288,0.389l-0.308,0.289c-0.061,0.029-0.136,0.059-0.223,0.09
			c-0.103,0-0.155-0.142-0.155-0.421l0.065-0.975l0.065-1.707l-0.065-1.139l-0.065-0.808c0.027-0.043,0.06-0.093,0.087-0.145
			c0.03-0.053,0.111-0.135,0.246-0.245c0.132-0.114,0.25-0.185,0.353-0.217c0.163,0.199,0.44,0.394,0.831,0.584
			c0.391,0.193,0.886,0.287,1.493,0.287h7.149c0.71,0,1.345-0.09,1.904-0.276l1.263-0.595c0.177,0,0.282,0.093,0.31,0.271
			l-0.087,1.009l-0.045,0.918l0.133,2.57c0,0.103-0.092,0.262-0.274,0.476c-0.187,0.214-0.33,0.321-0.434,0.321
			c-0.088,0-0.17-0.067-0.243-0.2l-0.132-1.063c0-0.265-0.056-0.505-0.166-0.719c-0.112-0.214-0.318-0.453-0.622-0.72
			c-0.302-0.266-0.885-0.397-1.759-0.397h-1.525v11.51c0,0.546,0.121,0.989,0.364,1.32c0.243,0.33,0.675,0.494,1.296,0.494
			c0.396,0,0.596,0.068,0.596,0.205c0,0.107-0.074,0.229-0.221,0.365l-0.265,0.273l-0.11,0.134l-3.298-0.134l-3.256,0.134
			c-0.163,0-0.244-0.06-0.244-0.179c0-0.074,0.063-0.217,0.189-0.43c0.124-0.213,0.283-0.336,0.475-0.368
			c0.192-0.027,0.431-0.23,0.719-0.607c0.288-0.376,0.432-0.778,0.432-1.207v-11.51H248.358z"/>
            <path fill="#FFFFFF" d="M268.568,31.81c0,0.62,0.122,1.069,0.366,1.35c0.243,0.279,0.595,0.419,1.053,0.419
			c0.472,0,0.708,0.098,0.708,0.292c0,0.103-0.08,0.243-0.243,0.42c-0.164,0.175-0.317,0.265-0.464,0.265l-1.483-0.068l-1.24-0.066
			l-3.431,0.134c-0.21,0-0.311-0.082-0.311-0.246c0-0.087,0.056-0.21,0.166-0.374c0.11-0.164,0.329-0.32,0.652-0.466
			c0.327-0.146,0.558-0.424,0.698-0.829c0.141-0.408,0.209-1.467,0.209-3.177c0-0.429-0.072-0.826-0.222-1.196
			c-0.146-0.372-0.662-1.351-1.548-2.944c-0.887-1.593-1.524-2.715-1.914-3.363c-0.392-0.65-0.757-1.206-1.096-1.674
			c-0.34-0.463-0.763-0.724-1.263-0.784c-0.282,0-0.419-0.072-0.419-0.223c0-0.116,0.098-0.264,0.297-0.441
			c0.2-0.177,0.387-0.279,0.565-0.31l3.03,0.132l3.28-0.132c0.261,0,0.395,0.109,0.395,0.331c-0.014,0.046-0.032,0.083-0.052,0.113
			c-0.024,0.028-0.071,0.084-0.136,0.166c-0.066,0.083-0.119,0.142-0.154,0.186c-0.036,0.045-0.073,0.107-0.099,0.179l-0.776,0.287
			c-0.28,0.09-0.418,0.347-0.418,0.776c0,0.308,0.197,0.877,0.596,1.704l2.236,4.229l2.414-4.36
			c0.337-0.635,0.508-1.145,0.508-1.529c0-0.369-0.104-0.644-0.311-0.828c-0.206-0.186-0.583-0.278-1.129-0.278
			c-0.265,0-0.397-0.051-0.397-0.155c0-0.12,0.104-0.275,0.309-0.476c0.206-0.201,0.369-0.313,0.487-0.343l1.041,0.132h1.152
			l2.634-0.132c0.089,0,0.181,0.024,0.276,0.079c0.099,0.05,0.152,0.111,0.167,0.186c0,0.076-0.065,0.195-0.188,0.367
			c-0.124,0.171-0.358,0.325-0.695,0.466c-0.339,0.139-0.661,0.401-0.964,0.786c-0.3,0.383-0.914,1.396-1.843,3.035l-1.927,3.432
			c-0.343,0.634-0.516,1.188-0.516,1.66V31.81z"/>
            <path fill="#FFFFFF" d="M138.274,41.08c0.462,0,0.781,0.019,0.957,0.053c0.176,0.034,0.312,0.058,0.406,0.071
			c0.092,0.018,0.253,0.053,0.478,0.113c0.138,0,0.256-0.017,0.355-0.053c0.1-0.032,0.177-0.061,0.236-0.074
			c0.057-0.013,0.156-0.052,0.292-0.111c0.12,0,0.178,0.095,0.178,0.282l-0.058,0.647l-0.028,0.838c0,0.276,0.011,0.543,0.041,0.813
			l0.045,0.531c-0.03,0.053-0.055,0.096-0.075,0.114l-0.206,0.163c-0.077,0.058-0.146,0.099-0.204,0.119
			c-0.09,0-0.177-0.211-0.267-0.635c-0.069-0.402-0.274-0.772-0.612-1.118c-0.34-0.344-0.915-0.513-1.73-0.513
			c-0.796,0-1.402,0.293-1.817,0.887c-0.419,0.595-0.625,1.544-0.625,2.852c0,1.492,0.263,2.596,0.793,3.314
			c0.532,0.716,1.239,1.075,2.121,1.075c0.56,0,1.102-0.17,1.623-0.5l1.354-1.091c0.138,0,0.207,0.054,0.207,0.159
			c0,0.071-0.02,0.156-0.06,0.268l-0.075,0.278c0,0.109-0.011,0.205-0.035,0.288c-0.026,0.085-0.339,0.342-0.945,0.772
			c-0.601,0.434-1.152,0.776-1.646,1.032c-0.497,0.256-0.995,0.384-1.496,0.384c-1.138,0-2.099-0.475-2.879-1.42
			c-0.781-0.95-1.17-2.246-1.17-3.879c0-1.427,0.48-2.727,1.442-3.898C135.834,41.668,136.968,41.08,138.274,41.08z"/>
            <path fill="#FFFFFF" d="M146.581,52.039c-1.288,0-2.343-0.469-3.174-1.406c-0.828-0.937-1.245-2.14-1.245-3.603
			c0-1.638,0.576-3.041,1.73-4.203c1.155-1.164,2.43-1.747,3.823-1.747c1.267,0,2.32,0.472,3.159,1.416
			c0.841,0.941,1.261,2.142,1.261,3.592c0,1.652-0.576,3.054-1.731,4.212C149.247,51.46,147.975,52.039,146.581,52.039z
			 M147.141,42.495c-0.807,0-1.405,0.243-1.797,0.729c-0.395,0.487-0.655,0.967-0.781,1.434c-0.127,0.473-0.19,1.036-0.19,1.695
			c0,1.344,0.265,2.394,0.794,3.144c0.531,0.752,1.191,1.125,1.988,1.125c0.815,0,1.482-0.324,1.997-0.971
			c0.516-0.648,0.774-1.611,0.774-2.888c0-1.352-0.273-2.402-0.812-3.152C148.572,42.867,147.916,42.495,147.141,42.495z"/>
            <path fill="#FFFFFF" d="M155.963,50.009c0,0.29,0.149,0.485,0.449,0.585c0.3,0.1,0.857,0.147,1.672,0.147
			c0.704,0,1.281-0.136,1.722-0.405c0.443-0.269,0.71-0.591,0.804-0.96c0.094-0.372,0.212-0.618,0.361-0.737
			c0.146-0.12,0.253-0.19,0.322-0.209c0.11,0,0.162,0.089,0.162,0.27l-0.263,1.549c-0.041,0.291-0.068,0.521-0.089,0.703
			c-0.021,0.178-0.03,0.354-0.03,0.521c0,0.13-0.046,0.229-0.142,0.298c-0.091,0.07-0.21,0.109-0.36,0.118l-4.108-0.087
			l-3.489,0.087c-0.188,0-0.281-0.042-0.281-0.129c0-0.079,0.038-0.176,0.11-0.29c0.074-0.112,0.18-0.193,0.316-0.24
			c0.128-0.03,0.266-0.157,0.412-0.378c0.148-0.22,0.221-0.493,0.221-0.817v-6.95c0-0.422-0.087-0.721-0.265-0.891
			c-0.175-0.175-0.391-0.274-0.64-0.305c-0.251-0.029-0.388-0.073-0.405-0.13c0-0.08,0.063-0.181,0.19-0.312
			c0.127-0.127,0.227-0.199,0.295-0.218l0.692,0.059l1.134,0.029l2.106-0.087c0.187,0,0.279,0.042,0.279,0.132
			c0,0.086-0.035,0.19-0.11,0.309c-0.072,0.117-0.191,0.195-0.345,0.229c-0.159,0.034-0.326,0.172-0.503,0.421
			c-0.147,0.234-0.219,0.578-0.219,1.029V50.009z"/>
            <path fill="#FFFFFF" d="M165.358,50.009c0,0.29,0.149,0.485,0.451,0.585c0.298,0.1,0.856,0.147,1.671,0.147
			c0.706,0,1.28-0.136,1.722-0.405c0.441-0.269,0.709-0.591,0.805-0.96c0.09-0.372,0.21-0.618,0.359-0.737
			c0.146-0.12,0.253-0.19,0.325-0.209c0.107,0,0.16,0.089,0.16,0.27l-0.264,1.549c-0.04,0.291-0.069,0.521-0.088,0.703
			c-0.02,0.178-0.028,0.354-0.028,0.521c0,0.13-0.048,0.229-0.143,0.298c-0.092,0.07-0.212,0.109-0.359,0.118l-4.109-0.087
			l-3.489,0.087c-0.189,0-0.281-0.042-0.281-0.129c0-0.079,0.038-0.176,0.111-0.29c0.073-0.112,0.18-0.193,0.315-0.24
			c0.129-0.03,0.268-0.157,0.413-0.378c0.147-0.22,0.222-0.493,0.222-0.817v-6.95c0-0.422-0.087-0.721-0.265-0.891
			c-0.175-0.175-0.389-0.274-0.641-0.305c-0.25-0.029-0.385-0.073-0.405-0.13c0-0.08,0.062-0.181,0.191-0.312
			c0.128-0.127,0.228-0.199,0.296-0.218l0.69,0.059l1.135,0.029l2.105-0.087c0.188,0,0.281,0.042,0.281,0.132
			c0,0.086-0.036,0.19-0.111,0.309c-0.072,0.117-0.188,0.195-0.345,0.229c-0.157,0.034-0.324,0.172-0.501,0.421
			c-0.148,0.234-0.221,0.578-0.221,1.029V50.009z"/>
            <path fill="#FFFFFF" d="M172.472,42.999c0-0.426-0.089-0.728-0.265-0.899c-0.176-0.173-0.39-0.275-0.64-0.308
			c-0.251-0.026-0.386-0.071-0.405-0.132c0-0.078,0.063-0.183,0.191-0.314c0.127-0.126,0.225-0.201,0.293-0.221l1.989,0.192
			l5.744-0.237c0.088,0,0.153,0.04,0.19,0.117l0.089,0.865c0.029,0.271,0.078,0.553,0.147,0.854l0.104,0.68
			c0,0.068-0.054,0.166-0.164,0.301c-0.105,0.135-0.196,0.208-0.265,0.218c-0.027-0.031-0.053-0.061-0.073-0.1
			c-0.02-0.038-0.065-0.138-0.134-0.298c-0.086-0.277-0.224-0.514-0.411-0.713c-0.186-0.198-0.469-0.354-0.848-0.463
			c-0.376-0.107-0.916-0.162-1.612-0.162h-1.723v2.59l1.663,0.088c0.629,0,1.077-0.064,1.342-0.189l0.661-0.356
			c0.091,0,0.14,0.069,0.148,0.205l-0.044,0.459l-0.043,0.49c0,0.255,0.014,0.53,0.043,0.813l0.044,0.415
			c0,0.126-0.025,0.232-0.074,0.31l-0.133,0.135l-0.132,0.162c-0.048,0.061-0.111,0.101-0.192,0.118
			c-0.059,0-0.102-0.023-0.131-0.071l-0.09-0.523c-0.03-0.296-0.15-0.525-0.367-0.677c-0.217-0.15-0.607-0.229-1.18-0.229
			l-1.516,0.061v3.636c0,0.336,0.171,0.575,0.516,0.722c0.365,0.138,0.998,0.207,1.9,0.207c0.834,0,1.413-0.141,1.73-0.43
			c0.32-0.287,0.521-0.58,0.603-0.881c0.085-0.3,0.151-0.467,0.201-0.498l0.16-0.058c0.069-0.031,0.125-0.059,0.162-0.083
			c0.041-0.025,0.105-0.048,0.194-0.067c0.088,0,0.131,0.066,0.131,0.196l-0.252,1.238c-0.038,0.22-0.068,0.422-0.088,0.606
			c-0.019,0.182-0.028,0.37-0.028,0.56c0,0.148-0.04,0.278-0.119,0.384c-0.077,0.113-0.195,0.171-0.353,0.18l-4.36-0.087
			l-3.386,0.087c-0.186,0-0.279-0.042-0.279-0.129c0-0.083,0.035-0.18,0.109-0.293c0.074-0.112,0.18-0.194,0.318-0.246
			c0.127-0.027,0.265-0.155,0.411-0.379c0.148-0.221,0.221-0.496,0.221-0.824V42.999z"/>
            <path fill="#FFFFFF" d="M187.701,48.017c0-0.586-0.221-0.925-0.663-1.013l-0.767-0.106c-0.067,0-0.101-0.034-0.101-0.108
			c0-0.055,0.062-0.142,0.185-0.259c0.125-0.123,0.235-0.188,0.337-0.207l0.821,0.087h0.805l2.33-0.087
			c0.048,0,0.093,0.014,0.131,0.045c0.041,0.028,0.063,0.067,0.073,0.113l-0.133,0.21c-0.059,0.066-0.103,0.13-0.134,0.185
			c-0.027,0.053-0.054,0.1-0.072,0.138c-0.155,0.031-0.297,0.122-0.42,0.273c-0.123,0.154-0.185,0.376-0.185,0.671v1.59
			c0,0.204,0.01,0.351,0.028,0.426c0.021,0.079,0.041,0.145,0.061,0.192c-0.01,0.032-0.022,0.063-0.038,0.095
			c-0.013,0.033-0.066,0.1-0.154,0.192c-0.089,0.095-0.172,0.14-0.25,0.14c-0.354,0-0.928,0.239-1.716,0.721
			c-0.789,0.484-1.548,0.723-2.274,0.723c-1.365,0-2.477-0.471-3.331-1.416c-0.853-0.943-1.281-2.15-1.281-3.621
			c0-1.55,0.514-2.928,1.538-4.125c1.028-1.197,2.303-1.797,3.822-1.797c0.464,0,0.818,0.032,1.062,0.091l0.942,0.175
			c0.188,0,0.379-0.029,0.575-0.089l0.472-0.177c0.087,0,0.142,0.059,0.162,0.177l-0.044,0.4c-0.03,0.253-0.043,0.514-0.043,0.779
			l0.087,1.516c-0.01,0.021-0.02,0.042-0.029,0.067c-0.012,0.024-0.04,0.052-0.089,0.082c-0.049,0.031-0.092,0.09-0.124,0.182
			c-0.037,0.093-0.091,0.138-0.17,0.138c-0.068,0-0.132-0.067-0.192-0.204l-0.162-0.662c-0.059-0.295-0.326-0.574-0.802-0.84
			c-0.479-0.264-1.138-0.396-1.981-0.396c-0.834,0-1.513,0.313-2.032,0.94c-0.522,0.629-0.782,1.581-0.782,2.856
			c0,1.415,0.278,2.489,0.838,3.227c0.561,0.738,1.332,1.105,2.312,1.105c0.393,0,0.724-0.089,0.986-0.268
			c0.268-0.181,0.4-0.48,0.4-0.896V48.017z"/>
            <path fill="#FFFFFF" d="M192.488,42.999c0-0.426-0.089-0.728-0.266-0.899c-0.176-0.173-0.389-0.275-0.64-0.308
			c-0.251-0.026-0.386-0.071-0.406-0.132c0-0.078,0.065-0.183,0.191-0.314c0.128-0.126,0.227-0.201,0.294-0.221l1.989,0.192
			l5.744-0.237c0.088,0,0.152,0.04,0.191,0.117l0.089,0.865c0.028,0.271,0.077,0.553,0.146,0.854l0.103,0.68
			c0,0.068-0.055,0.166-0.161,0.301c-0.108,0.135-0.197,0.208-0.266,0.218c-0.031-0.031-0.055-0.061-0.073-0.1
			c-0.02-0.038-0.064-0.138-0.132-0.298c-0.088-0.277-0.229-0.514-0.414-0.713c-0.188-0.198-0.47-0.354-0.847-0.463
			c-0.377-0.107-0.916-0.162-1.612-0.162h-1.722v2.59l1.663,0.088c0.629,0,1.075-0.064,1.341-0.189l0.663-0.356
			c0.088,0,0.135,0.069,0.147,0.205l-0.043,0.459l-0.047,0.49c0,0.255,0.015,0.53,0.047,0.813l0.043,0.415
			c0,0.126-0.025,0.232-0.076,0.31l-0.131,0.135l-0.134,0.162c-0.047,0.061-0.111,0.101-0.189,0.118
			c-0.061,0-0.104-0.023-0.132-0.071l-0.088-0.523c-0.03-0.296-0.154-0.525-0.369-0.677c-0.217-0.15-0.609-0.229-1.178-0.229
			l-1.516,0.061v3.636c0,0.336,0.171,0.575,0.514,0.722c0.364,0.138,0.997,0.207,1.9,0.207c0.834,0,1.413-0.141,1.729-0.43
			c0.322-0.287,0.522-0.58,0.605-0.881c0.083-0.3,0.15-0.467,0.197-0.498l0.165-0.058c0.069-0.031,0.122-0.059,0.162-0.083
			c0.042-0.025,0.103-0.048,0.19-0.067c0.091,0,0.134,0.066,0.134,0.196l-0.252,1.238c-0.038,0.22-0.067,0.422-0.087,0.606
			c-0.02,0.182-0.03,0.37-0.03,0.56c0,0.148-0.038,0.278-0.117,0.384c-0.079,0.113-0.198,0.171-0.353,0.18l-4.361-0.087
			l-3.387,0.087c-0.186,0-0.28-0.042-0.28-0.129c0-0.083,0.037-0.18,0.109-0.293c0.074-0.112,0.181-0.194,0.316-0.246
			c0.128-0.027,0.267-0.155,0.413-0.379c0.146-0.221,0.222-0.496,0.222-0.824V42.999z"/>
            <path fill="#FFFFFF" d="M205.669,43.338c0-0.492-0.073-0.852-0.213-1.086c-0.146-0.23-0.314-0.359-0.506-0.388l-0.429-0.045
			c-0.097-0.018-0.148-0.071-0.148-0.148c0-0.058,0.069-0.153,0.206-0.281l0.265-0.191l0.413,0.045
			c0.226,0.028,0.649,0.045,1.267,0.045l1.225-0.031l0.955-0.059l1.388-0.073c1.352,0,2.423,0.407,3.208,1.218
			c0.786,0.811,1.179,2.008,1.179,3.592c0,1.797-0.528,3.256-1.586,4.371c-1.053,1.116-2.373,1.673-3.955,1.673
			c-0.253,0-0.667-0.027-1.235-0.089c-0.57-0.058-1.041-0.087-1.414-0.087c-0.178,0-0.339,0-0.487,0s-0.279,0-0.396,0
			c-0.149,0-0.346,0.029-0.591,0.087c-0.147,0-0.222-0.048-0.222-0.146c0-0.076,0.037-0.174,0.112-0.289
			c0.072-0.111,0.191-0.187,0.352-0.229c0.165-0.041,0.306-0.193,0.428-0.464c0.124-0.271,0.185-0.76,0.185-1.471V43.338z
			 M207.877,49.268c0,0.689,0.107,1.091,0.324,1.208c0.118,0.051,0.208,0.085,0.272,0.105c0.066,0.021,0.191,0.054,0.376,0.103
			l0.737,0.059c1.786,0,2.678-1.499,2.678-4.491c0-1.337-0.258-2.317-0.77-2.938c-0.519-0.627-1.241-0.935-2.174-0.935
			c-0.227,0-0.431,0.012-0.619,0.033c-0.186,0.026-0.332,0.044-0.442,0.052c-0.107,0.01-0.234,0.035-0.383,0.073V49.268z"/>
            <path fill="#FFFFFF" d="M218.745,50.035c0,0.414,0.089,0.716,0.269,0.912c0.166,0.149,0.387,0.249,0.663,0.295
			c0.233,0,0.362,0.041,0.38,0.118c0,0.079-0.062,0.181-0.191,0.309c-0.126,0.13-0.227,0.201-0.293,0.22l-0.708-0.058l-1.118-0.029
			l-1.991,0.087c-0.187,0-0.282-0.042-0.282-0.129c0-0.079,0.039-0.176,0.114-0.29c0.074-0.112,0.177-0.193,0.316-0.24
			c0.129-0.03,0.266-0.157,0.413-0.378c0.148-0.22,0.223-0.493,0.223-0.817v-6.95c0-0.422-0.092-0.721-0.27-0.891
			c-0.176-0.175-0.388-0.274-0.638-0.305c-0.25-0.029-0.386-0.073-0.408-0.13c0-0.08,0.065-0.181,0.192-0.312
			c0.13-0.127,0.227-0.199,0.297-0.218l0.692,0.059l1.132,0.029l1.991-0.087c0.186,0,0.28,0.042,0.28,0.132
			c0,0.086-0.041,0.19-0.12,0.309c-0.079,0.117-0.182,0.19-0.308,0.219c-0.129,0.03-0.268,0.155-0.414,0.378
			c-0.145,0.219-0.222,0.493-0.222,0.817V50.035z"/>
            <path fill="#FFFFFF" d="M225.109,41.08c0.374,0,0.638,0.01,0.794,0.031c0.158,0.017,0.388,0.056,0.693,0.119l0.899,0.072
			c0.106,0,0.233-0.026,0.382-0.072l0.543-0.15c0.1,0,0.154,0.051,0.164,0.15l-0.133,0.677c-0.031,0.236-0.044,0.456-0.044,0.662
			l0.044,0.765l0.044,0.691c0,0.03-0.019,0.073-0.052,0.13c-0.034,0.05-0.095,0.126-0.185,0.226
			c-0.086,0.096-0.166,0.156-0.234,0.176c-0.08,0-0.143-0.101-0.192-0.313c-0.027-0.201-0.089-0.453-0.175-0.742
			c-0.09-0.29-0.336-0.556-0.744-0.808c-0.406-0.251-0.978-0.374-1.7-0.374c-0.561,0-0.986,0.118-1.283,0.359
			c-0.292,0.239-0.442,0.566-0.442,0.981c0,0.655,0.694,1.211,2.077,1.664c1.385,0.45,2.327,0.804,2.827,1.066
			c0.503,0.262,0.753,0.955,0.753,2.083c0,1.071-0.483,1.933-1.442,2.586c-0.965,0.651-2.008,0.979-3.138,0.979
			c-0.276,0-0.478-0.009-0.611-0.021c-0.134-0.015-0.348-0.046-0.643-0.097l-0.881-0.118c-0.206,0-0.368,0.018-0.479,0.05
			c-0.113,0.037-0.197,0.061-0.25,0.075c-0.055,0.014-0.152,0.05-0.29,0.111c-0.079,0-0.122-0.063-0.13-0.189v-0.649l0.059-0.647
			c0-0.137-0.005-0.285-0.017-0.445c-0.008-0.158-0.029-0.318-0.058-0.484c-0.028-0.355-0.063-0.618-0.103-0.779
			c0-0.107,0.059-0.246,0.177-0.419c0.127-0.155,0.225-0.229,0.294-0.229c0.049,0,0.093,0.037,0.132,0.121
			c0.039,0.081,0.087,0.321,0.146,0.724c0.059,0.399,0.369,0.796,0.928,1.18c0.56,0.389,1.257,0.581,2.09,0.581
			c0.592,0,1.07-0.168,1.447-0.508c0.373-0.335,0.557-0.795,0.557-1.375c0-0.61-0.47-1.07-1.412-1.385l-2.771-0.871
			c-0.982-0.508-1.472-1.299-1.472-2.369c0-0.875,0.408-1.626,1.221-2.261C223.316,41.396,224.187,41.08,225.109,41.08z"/>
            <path fill="#FFFFFF" d="M232.384,42.379c-0.589,0-1.03,0.115-1.319,0.343c-0.287,0.234-0.449,0.486-0.482,0.76
			c-0.037,0.273-0.068,0.445-0.098,0.507c-0.029,0.066-0.092,0.151-0.191,0.256l-0.208,0.195c-0.039,0.018-0.086,0.038-0.146,0.059
			c-0.068,0-0.102-0.096-0.102-0.28l0.043-0.647l0.045-1.134l-0.045-0.758l-0.043-0.538c0.019-0.029,0.036-0.061,0.058-0.096
			c0.019-0.034,0.074-0.091,0.163-0.162c0.087-0.078,0.165-0.124,0.235-0.145c0.108,0.131,0.291,0.263,0.553,0.39
			c0.259,0.127,0.592,0.189,0.995,0.189h4.757c0.471,0,0.891-0.062,1.266-0.183l0.839-0.396c0.116,0,0.186,0.06,0.206,0.179
			l-0.059,0.672l-0.031,0.61l0.09,1.71c0,0.069-0.062,0.174-0.184,0.317c-0.123,0.143-0.219,0.213-0.288,0.213
			c-0.059,0-0.114-0.042-0.161-0.134l-0.089-0.705c0-0.177-0.035-0.338-0.113-0.48c-0.071-0.14-0.208-0.302-0.411-0.478
			c-0.2-0.177-0.591-0.263-1.17-0.263h-1.016v7.656c0,0.363,0.082,0.658,0.242,0.877c0.162,0.221,0.451,0.331,0.863,0.331
			c0.266,0,0.397,0.047,0.397,0.137c0,0.069-0.047,0.151-0.147,0.243l-0.175,0.18l-0.075,0.087l-2.194-0.087l-2.166,0.087
			c-0.106,0-0.162-0.04-0.162-0.115c0-0.05,0.042-0.145,0.126-0.29c0.083-0.14,0.189-0.22,0.315-0.242
			c0.128-0.02,0.288-0.155,0.48-0.407c0.19-0.249,0.288-0.514,0.288-0.801v-7.656H232.384z"/>
            <path fill="#FFFFFF" d="M243.195,49.858c0,0.463,0.066,0.787,0.199,0.977c0.13,0.192,0.331,0.321,0.597,0.381
			c0.266,0.038,0.428,0.081,0.485,0.129c0.059,0.03,0.096,0.069,0.104,0.12c-0.021,0.018-0.045,0.051-0.075,0.093
			c-0.029,0.045-0.071,0.094-0.127,0.147c-0.052,0.054-0.098,0.095-0.138,0.12c-0.039,0.023-0.071,0.044-0.104,0.063l-2.031-0.087
			l-2.002,0.176c-0.117,0-0.175-0.048-0.175-0.148c0.026-0.069,0.06-0.124,0.094-0.162c0.033-0.04,0.066-0.096,0.095-0.165
			c0.03-0.069,0.135-0.136,0.318-0.197c0.183-0.067,0.316-0.223,0.412-0.47c0.092-0.244,0.139-0.63,0.139-1.153v-6.278
			c0-0.474-0.069-0.833-0.207-1.075c-0.137-0.24-0.308-0.378-0.515-0.407l-0.428-0.045c-0.085-0.009-0.137-0.059-0.145-0.147
			c0.008-0.028,0.019-0.053,0.034-0.073c0.016-0.02,0.071-0.075,0.17-0.164c0.098-0.09,0.157-0.149,0.178-0.178l0.162-0.192
			l0.822,0.192h0.782l3.801-0.192c0.842,0,1.526,0.208,2.047,0.626c0.52,0.421,0.781,0.979,0.781,1.679
			c0,0.671-0.275,1.262-0.819,1.78c-0.544,0.516-1.157,0.818-1.833,0.907c0.558,0,1.051,0.38,1.472,1.136l0.927,2.121
			c0.328,0.716,0.7,1.075,1.121,1.075c0.138,0,0.286-0.039,0.441-0.12l0.53-0.263c0.108,0,0.164,0.055,0.164,0.159
			c0,0.08-0.041,0.204-0.118,0.37c-0.059,0.176-0.127,0.277-0.2,0.301c-0.075,0.025-0.372,0.22-0.897,0.588
			c-0.525,0.369-0.883,0.555-1.067,0.555c-0.462,0-0.862-0.177-1.204-0.538c-0.335-0.357-0.728-1.144-1.177-2.356
			c-0.443-1.213-0.817-1.952-1.118-2.215c-0.299-0.268-0.797-0.398-1.496-0.398V49.858z M243.195,45.044
			c0,0.125,0.076,0.235,0.237,0.322c0.186,0.069,0.489,0.105,0.91,0.105c0.641,0,1.119-0.147,1.438-0.443
			c0.32-0.293,0.479-0.741,0.479-1.342c0-0.402-0.146-0.72-0.436-0.957c-0.29-0.234-0.734-0.35-1.333-0.35c-0.089,0-0.158,0-0.204,0
			c-0.051,0-0.206,0.019-0.46,0.057l-0.632,0.059V45.044z"/>
            <path fill="#FFFFFF" d="M253.917,50.035c0,0.414,0.087,0.716,0.262,0.912c0.169,0.149,0.39,0.249,0.664,0.295
			c0.238,0,0.363,0.041,0.382,0.118c0,0.079-0.062,0.181-0.192,0.309c-0.125,0.13-0.222,0.201-0.293,0.22l-0.706-0.058l-1.121-0.029
			l-1.988,0.087c-0.187,0-0.277-0.042-0.277-0.129c0-0.079,0.036-0.176,0.11-0.29c0.073-0.112,0.178-0.193,0.315-0.24
			c0.125-0.03,0.264-0.157,0.411-0.378c0.148-0.22,0.22-0.493,0.22-0.817v-6.95c0-0.422-0.085-0.721-0.264-0.891
			c-0.175-0.175-0.389-0.274-0.641-0.305c-0.249-0.029-0.382-0.073-0.403-0.13c0-0.08,0.063-0.181,0.192-0.312
			c0.128-0.127,0.226-0.199,0.293-0.218l0.692,0.059l1.135,0.029l1.989-0.087c0.187,0,0.277,0.042,0.277,0.132
			c0,0.086-0.038,0.19-0.116,0.309c-0.079,0.117-0.181,0.19-0.307,0.219c-0.13,0.03-0.266,0.155-0.416,0.378
			c-0.144,0.219-0.218,0.493-0.218,0.817V50.035z"/>
            <path fill="#FFFFFF" d="M260.69,41.08c0.464,0,0.779,0.019,0.957,0.053c0.176,0.034,0.313,0.058,0.405,0.071
			c0.094,0.018,0.254,0.053,0.479,0.113c0.139,0,0.258-0.017,0.354-0.053c0.1-0.032,0.177-0.061,0.237-0.074
			c0.06-0.013,0.155-0.052,0.292-0.111c0.118,0,0.176,0.095,0.176,0.282l-0.059,0.647l-0.027,0.838c0,0.276,0.014,0.543,0.046,0.813
			l0.04,0.531c-0.026,0.053-0.054,0.096-0.072,0.114l-0.206,0.163c-0.078,0.058-0.148,0.099-0.206,0.119
			c-0.09,0-0.177-0.211-0.266-0.635c-0.069-0.402-0.273-0.772-0.609-1.118c-0.34-0.344-0.918-0.513-1.734-0.513
			c-0.797,0-1.399,0.293-1.816,0.887c-0.419,0.595-0.627,1.544-0.627,2.852c0,1.492,0.264,2.596,0.795,3.314
			c0.531,0.716,1.24,1.075,2.123,1.075c0.559,0,1.1-0.17,1.619-0.5l1.354-1.091c0.139,0,0.208,0.054,0.208,0.159
			c0,0.071-0.02,0.156-0.059,0.268l-0.076,0.278c0,0.109-0.011,0.205-0.035,0.288c-0.025,0.085-0.337,0.342-0.941,0.772
			c-0.604,0.434-1.157,0.776-1.651,1.032c-0.497,0.256-0.993,0.384-1.495,0.384c-1.14,0-2.099-0.475-2.878-1.42
			c-0.781-0.95-1.172-2.246-1.172-3.879c0-1.427,0.481-2.727,1.442-3.898C258.251,41.668,259.387,41.08,260.69,41.08z"/>
            <path fill="#FFFFFF" d="M267.036,42.379c-0.585,0-1.028,0.115-1.317,0.343c-0.289,0.234-0.449,0.486-0.484,0.76
			c-0.035,0.273-0.067,0.445-0.096,0.507c-0.03,0.066-0.095,0.151-0.191,0.256l-0.206,0.195c-0.038,0.018-0.09,0.038-0.147,0.059
			c-0.069,0-0.104-0.096-0.104-0.28l0.046-0.647l0.045-1.134l-0.045-0.758l-0.046-0.538c0.021-0.029,0.04-0.061,0.059-0.096
			c0.021-0.034,0.072-0.091,0.164-0.162c0.085-0.078,0.166-0.124,0.235-0.145c0.107,0.131,0.291,0.263,0.552,0.39
			c0.259,0.127,0.59,0.189,0.993,0.189h4.759c0.471,0,0.892-0.062,1.267-0.183l0.839-0.396c0.117,0,0.186,0.06,0.206,0.179
			l-0.059,0.672l-0.03,0.61l0.089,1.71c0,0.069-0.063,0.174-0.186,0.317c-0.123,0.143-0.216,0.213-0.285,0.213
			c-0.061,0-0.114-0.042-0.163-0.134l-0.089-0.705c0-0.177-0.038-0.338-0.11-0.48c-0.074-0.14-0.212-0.302-0.416-0.478
			c-0.199-0.177-0.591-0.263-1.169-0.263h-1.016v7.656c0,0.363,0.082,0.658,0.243,0.877c0.161,0.221,0.447,0.331,0.862,0.331
			c0.264,0,0.399,0.047,0.399,0.137c0,0.069-0.051,0.151-0.148,0.243l-0.177,0.18l-0.074,0.087l-2.197-0.087l-2.162,0.087
			c-0.111,0-0.163-0.04-0.163-0.115c0-0.05,0.039-0.145,0.125-0.29c0.085-0.14,0.189-0.22,0.315-0.242
			c0.129-0.02,0.289-0.155,0.479-0.407c0.19-0.249,0.288-0.514,0.288-0.801v-7.656H267.036z"/>
        </g>
        <g>
            <path fill="#FFFFFF" d="M83.962,43.14c2.923-4.129,4.634-9.18,4.634-14.625c0-13.949-11.307-25.256-25.256-25.256
			c-5.791,0-11.11,1.951-15.37,5.229l1.885,1.966c3.761-2.814,8.428-4.48,13.485-4.48c12.451,0,22.542,10.091,22.542,22.542
			c0,4.672-1.448,9.023-3.884,12.626C82.629,41.828,83.276,42.501,83.962,43.14z"/>
            <path fill="#FFFFFF" d="M76.753,46.62c-3.749,2.774-8.4,4.437-13.414,4.437c-12.45,0-22.542-10.092-22.542-22.542
			c0-4.819,1.423-9.154,3.98-12.792c-0.513-0.746-1.233-1.4-1.83-2.09c-3.098,4.181-4.863,9.259-4.863,14.882
			c0,13.95,11.305,25.256,25.253,25.256c5.763,0,11.126-1.99,15.378-5.242L76.753,46.62z"/>
            <path fill="#FFFFFF" d="M98.299,3.258c-5.803,0-11.105,1.978-15.366,5.271l1.998,2.101c3.73-2.794,8.349-4.451,13.368-4.451
			c12.338,0,22.337,10,22.337,22.335S110.637,50.85,98.299,50.85c-12.336,0-22.337-10-22.337-22.335
			c0-4.708,1.47-9.066,3.958-12.668c-0.628-0.784-1.324-1.467-2.082-2.063c-2.986,4.146-4.797,9.235-4.797,14.731
			c0,13.95,11.309,25.256,25.258,25.256c13.95,0,25.26-11.307,25.26-25.256C123.559,14.565,112.25,3.258,98.299,3.258z"/>
            <path fill="#FFFFFF" d="M28.513,3.258c-13.95,0-25.255,11.307-25.255,25.256c0,13.95,11.305,25.256,25.255,25.256
			c5.219,0,10.096-1.535,14.123-4.243l0.806-0.646l-1.896-2.028l-0.793,0.604c-3.526,2.277-7.732,3.599-12.24,3.599
			c-12.447,0-22.542-10.092-22.542-22.542S16.066,5.973,28.513,5.973c12.451,0,22.544,10.091,22.544,22.542
			c0,4.805-1.391,9.541-3.962,12.93c0.571,0.677,1.311,1.482,1.9,1.988c3.132-4.558,4.777-9.38,4.777-14.918
			C53.772,14.565,42.465,3.258,28.513,3.258z"/>
            <g>
                <path fill="none" stroke="#FFFFFF" stroke-width="0.825" stroke-miterlimit="3.8637" d="M75.587,11.975
				c-1.228,1.863-5.389,7.523-5.388,16.54C70.2,44.036,82.778,56.618,98.301,56.618c15.52,0,28.102-12.582,28.102-28.103
				c0-15.52-12.582-28.102-28.102-28.102c-6.521,0-12.518,2.227-17.284,5.953"/>
            </g>
            <path fill="none" stroke="#FFFFFF" stroke-width="0.825" stroke-miterlimit="3.8637" d="M51.086,45.255
			c3.204-4.466,5.533-10.038,5.533-16.74c0-15.52-12.583-28.102-28.104-28.102c-15.52,0-28.102,12.582-28.102,28.102
			c0,15.521,12.582,28.103,28.102,28.103c6.569,0,12.605-2.26,17.389-6.033"/>
            <g>
                <path fill="none" stroke="#FFFFFF" stroke-width="0.825" stroke-miterlimit="3.8637" d="M80.833,50.589
				c-4.786,3.776-10.83,6.029-17.398,6.029c-15.522,0-28.1-12.582-28.1-28.103c0-6.806,2.911-13.259,5.387-16.54"/>
                <path fill="none" stroke="#FFFFFF" stroke-width="0.825" stroke-miterlimit="3.8637" d="M86.152,45.063
				c3.146-4.779,5.384-9.944,5.384-16.548c0-15.52-12.582-28.102-28.102-28.102c-6.524,0-12.523,2.23-17.291,5.96"/>
            </g>
        </g>
    </g>
</svg>