<svg id="Layer_1" data-name="Layer 1" xmlns="http://www.w3.org/2000/svg" viewBox="0 0 359.81 161.58"><title>Canada College Logo</title><path d="M244,255.07H376.51a56.74,56.74,0,1,1,102.41-33.68A57.5,57.5,0,0,1,467.77,255H600.42" transform="translate(-242.3 -163.15)" style="fill:none;stroke:#006f53;stroke-linecap:round;stroke-linejoin:round;stroke-width:3px"/><line x1="1.69" y1="160.08" x2="358.22" y2="160.08" style="fill:none;stroke:#006f53;stroke-linecap:round;stroke-width:3px"/><line x1="0.75" y1="155.75" x2="359.06" y2="155.75" style="fill:none;stroke:#006f53;stroke-linecap:round;stroke-width:1.5px"/><path d="M243.14,259.31H387.2c-9.85-9.5-16.89-23.12-16.89-37.89a52.24,52.24,0,0,1,52.23-52.23c26.56,0,51.63,20.49,51.63,51.63a52.83,52.83,0,0,1-16.29,38.49H601.36" transform="translate(-242.3 -163.15)" style="fill:none;stroke:#006f53;stroke-linecap:round;stroke-linejoin:round;stroke-width:1.5px"/><path d="M273.83,277.89c0,.54,0,.92-.65.92-.38,0-.7-.11-1.3-1-1.94-2.93-3.94-5.48-8.91-5.48-8.85,0-13,8.68-13,15.61,0,7.59,4.43,16.27,12.59,16.27,5,0,7.34-3,9.61-7.21.11-.22.54-1,1.08-1,.81,0,.81.49.81.86l-.43,4.61c-.06.76-.17,1.25-1.3,1.9a20.79,20.79,0,0,1-9.94,2.18c-13.65,0-19.63-10.47-19.63-17.36,0-7.53,6.46-17.23,20.55-17.23a36.08,36.08,0,0,1,7.08.75c2.43.44,2.7.92,2.91,2.39Z" transform="translate(-242.3 -163.15)" style="fill:#006f53"/><path d="M290,296.35c0,3.79-2.1,5.74-4.53,5.74-1.18,0-2.42-1-2.42-3.57,0-1.08,0-3.13,3.39-4.75a9.07,9.07,0,0,1,3-1.14c.27,0,.6.06.6.6Zm0-6.85c0,1-.06,1.4-1.35,1.94-8.28,3.3-11.13,5.62-11.13,9.57,0,.81.27,4.53,4.19,4.53,2.42,0,5.33-2,7.59-3.83,0,0,.27-.22.37-.22s.27,0,.76,1c.65,1.31,1.67,2.94,3.78,2.94,2.37,0,5.67-2.56,5.67-3.86a.52.52,0,0,0-.49-.49c-.27,0-.32.06-.92.54a2.56,2.56,0,0,1-1.56.54c-1.51,0-1.68-1.35-1.68-3V284.09c0-2.21-1.24-3.94-6.31-3.94-8.18,0-11.56,5.56-11.56,7.4a1.1,1.1,0,0,0,1.18,1.08c.06,0,3.17-.22,4-2.65.43-1.24,1.61-4.53,4.73-4.53,2.53,0,2.7,2.59,2.7,4.48Z" transform="translate(-242.3 -163.15)" style="fill:#006f53"/><path d="M321.75,289.91c0-2.53,0-6.58-5.31-6.58a6.43,6.43,0,0,0-4.55,1.83,3.86,3.86,0,0,0-1,3V299.6c0,3,0,3.68,2.33,4,1.35.16,1.62.43,1.62.92,0,.64-.54.64-.92.64-.81,0-4.65-.18-5.68-.18-.81,0-4.69.18-5.56.18-.43,0-1,0-1-.7,0-.49.43-.7,1.62-.86,2.32-.33,2.32-.92,2.32-3.95V289.28c0-2.55,0-3.74-1.62-3.84-.86-.06-1.46-.06-1.46-.76,0-.33.17-.54.76-.7a16,16,0,0,0,5.51-3.52c.38-.43.81-1,1.19-1s.59.48.59,1v2.65c0,.92,0,1.08.22,1.08a1.36,1.36,0,0,0,.75-.27c3.31-3.07,4.93-3.78,8-3.78,3.57,0,7.45,1.95,7.45,7v12.51c0,3,0,3.67,2.33,4,1.35.16,1.62.43,1.62.92,0,.64-.54.64-.92.64-.81,0-4.75-.18-5.62-.18s-4.76.18-5.68.18c-.38,0-.92,0-.92-.7,0-.48.38-.7,1.63-.86,2.33-.32,2.33-.92,2.33-3.94Z" transform="translate(-242.3 -163.15)" style="fill:#006f53"/><path d="M345.46,296.35c0,3.79-2.1,5.74-4.52,5.74-1.18,0-2.42-1-2.42-3.57,0-1.08,0-3.13,3.39-4.75a9.07,9.07,0,0,1,3-1.14c.27,0,.59.06.59.6Zm0-6.85c0,1,0,1.4-1.34,1.94-8.28,3.3-11.13,5.62-11.13,9.57,0,.81.27,4.53,4.19,4.53,2.42,0,5.32-2,7.58-3.83,0,0,.27-.22.38-.22s.27,0,.76,1c.64,1.31,1.67,2.94,3.78,2.94,2.37,0,5.67-2.56,5.67-3.86a.53.53,0,0,0-.49-.49c-.27,0-.32.06-.92.54a2.56,2.56,0,0,1-1.56.54c-1.52,0-1.68-1.35-1.68-3V284.09c0-2.21-1.24-3.94-6.31-3.94-8.18,0-11.56,5.56-11.56,7.4a1.1,1.1,0,0,0,1.18,1.08c.05,0,3.17-.22,4-2.65.43-1.24,1.61-4.53,4.73-4.53,2.53,0,2.69,2.59,2.69,4.48Z" transform="translate(-242.3 -163.15)" style="fill:#006f53"/><path d="M377.05,299.46c0,1,0,3.09-4.53,3.09-5.34,0-8.63-4.6-8.63-10.72,0-7.1,4-10.56,7.71-10.56,5.45,0,5.45,4.87,5.45,7.31Zm5-24.21c0-.82.21-4.47.21-5.23,0-.22,0-1-.64-1a1.21,1.21,0,0,0-.65.22,22.59,22.59,0,0,1-6.16,2.12c-.16.05-1,.27-1,.87s.7.6,1,.65c1.73.11,2,.6,2,2.23v5.76a.42.42,0,0,1-.38.43,2.24,2.24,0,0,1-.65-.22,12.65,12.65,0,0,0-4.58-.91,13.21,13.21,0,0,0-13.05,13.31c0,7.26,5.28,12.1,11.38,12.1a9.41,9.41,0,0,0,6.36-2.52,1.68,1.68,0,0,1,.76-.37c.38,0,.48.48.48.8.17,2,.49,2.09.92,2.09a35.7,35.7,0,0,0,3.67-1.34c3.57-1.18,3.68-1.23,3.68-2.63,0-.17,0-.65-.33-.65s-1.83,1.4-2.21,1.4-.81-.32-.81-1.89Z" transform="translate(-242.3 -163.15)" style="fill:#006f53"/><path d="M401.25,296.35c0,3.79-2.1,5.74-4.53,5.74-1.18,0-2.42-1-2.42-3.57,0-1.08,0-3.13,3.39-4.75a9.07,9.07,0,0,1,3-1.14c.27,0,.6.06.6.6Zm0-6.85c0,1-.06,1.4-1.35,1.94-8.28,3.3-11.13,5.62-11.13,9.57,0,.81.27,4.53,4.19,4.53,2.42,0,5.33-2,7.59-3.83,0,0,.26-.22.37-.22s.27,0,.76,1c.65,1.31,1.67,2.94,3.78,2.94,2.37,0,5.67-2.56,5.67-3.86a.52.52,0,0,0-.49-.49c-.27,0-.32.06-.92.54a2.56,2.56,0,0,1-1.56.54c-1.51,0-1.68-1.35-1.68-3V284.09c0-2.21-1.24-3.94-6.31-3.94-8.18,0-11.56,5.56-11.56,7.4a1.1,1.1,0,0,0,1.18,1.08c.06,0,3.17-.22,4-2.65.43-1.24,1.61-4.53,4.73-4.53,2.53,0,2.7,2.59,2.7,4.48Z" transform="translate(-242.3 -163.15)" style="fill:#006f53"/><path d="M458.4,277.89c0,.54,0,.92-.65.92-.38,0-.7-.11-1.29-1-1.95-2.93-3.95-5.48-8.91-5.48-8.86,0-13,8.68-13,15.61,0,7.59,4.42,16.27,12.58,16.27,5,0,7.34-3,9.61-7.21.11-.22.54-1,1.08-1,.81,0,.81.49.81.86l-.43,4.61c-.06.76-.16,1.25-1.3,1.9a20.77,20.77,0,0,1-9.93,2.18c-13.66,0-19.64-10.47-19.64-17.36,0-7.53,6.46-17.23,20.55-17.23a36,36,0,0,1,7.08.75c2.43.44,2.7.92,2.91,2.39Z" transform="translate(-242.3 -163.15)" style="fill:#006f53"/><path d="M468.71,291.87c0-6.61,3.19-10.51,7.08-10.51,5.89,0,7.83,7.8,7.83,11.54,0,6.39-3.4,11.43-7.35,11.43C472,304.33,468.71,298.59,468.71,291.87Zm20.53.49c0-8.18-6.86-12.22-13-12.22a12.72,12.72,0,1,0,.22,25.41C484,305.55,489.24,299.56,489.24,292.36Z" transform="translate(-242.3 -163.15)" style="fill:#006f53"/><path d="M496.47,276.83c0-1.62,0-3.46-1.94-3.62-1-.11-1.24-.11-1.24-.7s.16-.54,1.72-.92a26.45,26.45,0,0,0,4.65-1.62c1.29-.65,1.4-.7,1.67-.7.6,0,.6.59.6,1.13,0,.7-.22,4.05-.22,4.65v24.62c0,3,0,3.62,2.32,3.94,1.35.16,1.62.43,1.62.92,0,.64-.54.64-.92.64-1.46,0-2.53-.18-5.67-.18-3.56,0-4.21.18-5.34.18-.65,0-1.19,0-1.19-.7,0-.48.43-.7,1.62-.86,2.32-.32,2.32-.92,2.32-3.89Z" transform="translate(-242.3 -163.15)" style="fill:#006f53"/><path d="M511.59,276.83c0-1.62,0-3.46-1.94-3.62-1-.11-1.24-.11-1.24-.7s.16-.54,1.72-.92a26.45,26.45,0,0,0,4.65-1.62c1.29-.65,1.4-.7,1.67-.7.6,0,.6.59.6,1.13,0,.7-.22,4.05-.22,4.65v24.62c0,3,0,3.62,2.32,3.94,1.35.16,1.62.43,1.62.92,0,.64-.54.64-.92.64-1.45,0-2.54-.18-5.67-.18-3.56,0-4.21.18-5.34.18-.65,0-1.19,0-1.19-.7,0-.48.43-.7,1.62-.86,2.32-.32,2.32-.92,2.32-3.89Z" transform="translate(-242.3 -163.15)" style="fill:#006f53"/><path d="M532.05,287.28c-1.24,0-1.46,0-1.46-.6a6.62,6.62,0,0,1,6.54-5.32c.81,0,4.48.11,4.48,3.31,0,1.41-1.35,2.61-3.67,2.61ZM545.69,289c.86,0,1.45,0,1.45-1,0-1.84-1.72-7.84-9.85-7.84-7.35,0-13.39,5.18-13.39,13.2,0,7.53,5.4,12.21,12.53,12.21,6.85,0,10.61-4.73,10.61-5.55a.48.48,0,0,0-.49-.48c-.32,0-.37.05-1.18.86a8.71,8.71,0,0,1-5.92,2.17c-5.56,0-9.56-4.66-9.56-10.73,0-2.82.49-2.87,1.4-2.87Z" transform="translate(-242.3 -163.15)" style="fill:#006f53"/><path d="M567.58,288.15c0,7.16-4.17,7.16-4.66,7.16-2.44,0-5.1-2.15-5.1-6.95,0-4.58,2.39-7,5-7C566.66,281.35,567.58,286.15,567.58,288.15Zm3.2-6.13a4.34,4.34,0,0,1-2.33-.56,12.8,12.8,0,0,0-5.75-1.31c-6.6,0-10.69,4.22-10.69,8.59,0,4.2,3.39,5.93,5.54,7,.11.05.33.16.33.32s-.15.27-.75.48l-3.73,1.3a1.52,1.52,0,0,0-1.19,1.51c0,1.24,2.49,3.23,3,3.61,1.24.86,1.24,1,1.24,1.13s-1,.81-1.42,1c-2,1-4.36,2.28-4.36,5,0,4.46,6.35,5.55,10.12,5.55,8.83,0,15.47-4.68,15.47-9.84,0-2.65-2.27-5.77-9.12-5.72h-6.63c-.32,0-2.54-.05-2.54-1.67,0-1.84,3.46-1.95,5-2,7.58-.22,10.4-5.08,10.4-7.94a8.73,8.73,0,0,0-.87-3.46.79.79,0,0,1-.16-.49c0-.32.32-.38,1-.38h1.95c.75,0,.91-.05.91-.7,0-.1,0-1.45-1-1.45Zm-6.24,22.78c1.4,0,7.16.05,7.16,3.69,0,4.46-5.71,5.6-8.56,5.6-4.37,0-7.38-2.34-7.38-5.32,0-2.61,2.15-4.19,3-4.19.49,0,2.59.27,3.07.27Z" transform="translate(-242.3 -163.15)" style="fill:#006f53"/><path d="M586.75,287.28c-1.24,0-1.46,0-1.46-.6a6.62,6.62,0,0,1,6.54-5.32c.81,0,4.48.11,4.48,3.31,0,1.41-1.35,2.61-3.67,2.61ZM600.39,289c.86,0,1.45,0,1.45-1,0-1.84-1.72-7.84-9.85-7.84-7.34,0-13.39,5.18-13.39,13.2,0,7.53,5.4,12.21,12.53,12.21,6.85,0,10.61-4.73,10.61-5.55a.48.48,0,0,0-.49-.48c-.32,0-.37.05-1.18.86a8.71,8.71,0,0,1-5.92,2.17c-5.56,0-9.56-4.66-9.56-10.73,0-2.82.49-2.87,1.41-2.87Z" transform="translate(-242.3 -163.15)" style="fill:#006f53"/><path d="M324.31,273.61c-1.23,1.6-2.48,3.14-4.71,3a8.73,8.73,0,0,1-3.13-.93l-1.45-.64a10.21,10.21,0,0,0-3-.95c-1.69-.08-2.61,1.11-3.49,2.37l-1.4-1c1.27-1.79,2.63-3.31,5-3.21s5.59,2.44,7.49,2.52c1.51.06,2.42-1,3.23-2.13Z" transform="translate(-242.3 -163.15)" style="fill:#006f53"/><path d="M461.12,249.31l-.43-.12c-1-.48-10.31-3.88-26.87,7.27-4.21,2.83-7.42,5.75-12.19,11.29-3.15,3.65-8,6.34-11.73,6.53-1.59.08-3.22-.2-3.75-1.13-.15-.25-.29.23-.21-.21a2.05,2.05,0,0,1,1.3-1.5,3.64,3.64,0,0,1,.79-.12,16,16,0,0,0,8.51-3.35,9.71,9.71,0,0,0,1.63-1.52c.67-.73,1.78-1.95,4.86-4.82,19.56-18.25,35-14.53,35.14-14.49h0l.29.07C463.38,248.42,461.58,249.47,461.12,249.31Z" transform="translate(-242.3 -163.15)" style="fill:#006f53"/><path d="M452.94,207.47l.26-.2c-1.35,1.8-2.15,4.45-10.9,15.81-.84,1.09-13.58,17.6-12.44,16.88,6.57-4.13,14.2-11.35,14.2-11.35-.57,1.95-13.93,13.85-15.62,15.15a5.55,5.55,0,0,0-2.29,3.93l-.37,5.08c-.22,2.6,1,3,1,3-7,6-6.47,5.77-6.47,5.77s-.61.21-.85-.14c-.38-.57-.25-.94.06-1.56a4.57,4.57,0,0,0,.57-1.08s1.44-2.1.81-7.36l-.38-4.11c-1.39-6.14-8.27-4-18.86-17.11-.36-.45,5.77,6.05,10.36,8.29a20,20,0,0,0,5.56,1.92c-6.45-9.9-14.54-16.49-15.08-17.2s-3.41-1-8.71-5.65c-1.34-1.18.56.15,3.61,2.16,2.36,1.55,3.13,1.1,3.13,1.1l-6.31-12,.15,0s1.3,2,6.72,10.55c2.48,4-2.23-15.4-4-21.54,0,0,6.75,20.07,5.76,23.42,0,0,3.61,4.34,5.22,6.13,4.06,4.52,12.69,13.64,12.69,13.64s-12-21-15.07-37.36c-1.75-9.41-2.73-13-2.61-18,0-1.5-.25-1.08,1.07,6.3,1.66,9.2,4.68,22.29,6.76,24.55.63.69,3.07-8.29,3.48-18.26.45-10.73,0-19.61,0-19.61a109.32,109.32,0,0,1,.82,20.68c-.26,6.31-.53,12.4-3.2,18.68-.25.59,1.81,6.42,3,8.87,2.08,4.38,6.22,10.83,6.22,10.83s-.46-1.62-1.15-14.28c-.38-7-.64-34.89-.34-39.67.16-2.46,1,19.64,2.41,45.66l.81-1.61c4.72-13.59,2-33.86,2.88-46,.23-3.11,1,25.19.46,35.69-.11,2-.46,5.75-2.54,13.12A20,20,0,0,0,424,241s9.57-22.18,8.8-24.83-5.7-6.15-5-16.2c.21-3.42,2-6.18,2.88-9.57,1.22-4.6,2.48-8.15,2.48-8.15s-1.63,7-3.22,11.82c-4.3,12.89,3.53,20.57,3.53,20.57s5.14-22,5.44-26.12c0-.59.4,0-.87,9.21-2.2,15.9-8.32,33.85-11.24,43,0,0,14.21-16.52,15.55-19.6,1-2.17-3.57-3,3.09-25.41.05-.16.19-.21.23-.37a100.27,100.27,0,0,0-2.17,10.76,72.85,72.85,0,0,0-.73,7.77,23,23,0,0,0,.71,6.08Z" transform="translate(-242.3 -163.15)" style="fill:#006f53"/><path d="M406.1,225.46c1.32-2.86,1.62-5.88-.19-8.09C404.05,219.93,404.32,222.87,406.1,225.46Z" transform="translate(-242.3 -163.15)" style="fill:#006f53"/><path d="M393.49,193.55c.46,2.56,1.7,4.74,4,5.38A5.49,5.49,0,0,0,393.49,193.55Z" transform="translate(-242.3 -163.15)" style="fill:#006f53"/><path d="M440.21,194.41c-.33,3.4.49,6.64,3.25,8.39C444.49,199.54,443.09,196.56,440.21,194.41Z" transform="translate(-242.3 -163.15)" style="fill:#006f53"/><path d="M432.07,197.72c.06,3.07,1.13,5.89,3.79,7.19C436.44,201.9,434.88,199.36,432.07,197.72Z" transform="translate(-242.3 -163.15)" style="fill:#006f53"/><path d="M418.66,197.05c-2.21,1.35-3.79,3.28-3.55,5.64A5.49,5.49,0,0,0,418.66,197.05Z" transform="translate(-242.3 -163.15)" style="fill:#006f53"/><path d="M437.63,178.69c-2.48.74-4.5,2.2-4.87,4.54A5.48,5.48,0,0,0,437.63,178.69Z" transform="translate(-242.3 -163.15)" style="fill:#006f53"/><path d="M417.87,186.74c-1.91,1.74-3.1,3.93-2.43,6.2A5.47,5.47,0,0,0,417.87,186.74Z" transform="translate(-242.3 -163.15)" style="fill:#006f53"/><path d="M434.46,190.94c.05,2.53.93,4.86,3.13,5.93C438.06,194.38,436.77,192.29,434.46,190.94Z" transform="translate(-242.3 -163.15)" style="fill:#006f53"/><path d="M439.14,181.9c-1.25,2.31-1.67,4.79-.33,6.72A5.61,5.61,0,0,0,439.14,181.9Z" transform="translate(-242.3 -163.15)" style="fill:#006f53"/><path d="M427.47,182c.06,3.08,1.13,5.89,3.79,7.19C431.83,186.13,430.27,183.59,427.47,182Z" transform="translate(-242.3 -163.15)" style="fill:#006f53"/><path d="M421.32,187.23c.34,3.06,1.67,5.75,4.43,6.77C426,190.93,424.26,188.57,421.32,187.23Z" transform="translate(-242.3 -163.15)" style="fill:#006f53"/><path d="M424.09,205.8c-2.1,1.92-3.39,4.32-2.67,6.79C423.86,211.11,424.66,208.57,424.09,205.8Z" transform="translate(-242.3 -163.15)" style="fill:#006f53"/><path d="M399.09,188.06c.64,2.72,2.14,5,4.76,5.69C403.77,191,401.9,189,399.09,188.06Z" transform="translate(-242.3 -163.15)" style="fill:#006f53"/><path d="M423.75,197.46c-2.19,1.81-3.59,4.15-3,6.69C423.3,202.8,424.21,200.29,423.75,197.46Z" transform="translate(-242.3 -163.15)" style="fill:#006f53"/><path d="M432.56,205.35c-1.64,1.36-2.69,3.11-2.22,5A4.49,4.49,0,0,0,432.56,205.35Z" transform="translate(-242.3 -163.15)" style="fill:#006f53"/><path d="M456.93,207.88c-2.12-.28-4.12.15-5.19,1.79A4.5,4.5,0,0,0,456.93,207.88Z" transform="translate(-242.3 -163.15)" style="fill:#006f53"/><path d="M448.64,227.56c-2.11-.27-4.12.16-5.19,1.8A4.5,4.5,0,0,0,448.64,227.56Z" transform="translate(-242.3 -163.15)" style="fill:#006f53"/><path d="M441.49,235.05c-2.11-.27-4.11.16-5.18,1.8A4.5,4.5,0,0,0,441.49,235.05Z" transform="translate(-242.3 -163.15)" style="fill:#006f53"/><path d="M403.31,232.08c-1.88-1-3.91-1.32-5.49-.16A4.51,4.51,0,0,0,403.31,232.08Z" transform="translate(-242.3 -163.15)" style="fill:#006f53"/><path d="M439.53,209.14c-2.87,1.31-5.06,3.41-5.13,6.27C437.49,214.67,439.2,212.26,439.53,209.14Z" transform="translate(-242.3 -163.15)" style="fill:#006f53"/><path d="M418.88,221.42c-2.34,2.09-3.79,4.74-3,7.49C418.6,227.31,419.5,224.51,418.88,221.42Z" transform="translate(-242.3 -163.15)" style="fill:#006f53"/><path d="M394.41,208.9c-1.67-2-3.8-3.32-6.06-2.84A5.72,5.72,0,0,0,394.41,208.9Z" transform="translate(-242.3 -163.15)" style="fill:#006f53"/><path d="M393.78,217.41c0-2.21-.74-4.25-2.63-5.2C390.69,214.37,391.78,216.21,393.78,217.41Z" transform="translate(-242.3 -163.15)" style="fill:#006f53"/><path d="M398.38,202.05c-1.45-1.67-3.34-2.73-5.4-2.2C394.06,201.78,396.08,202.45,398.38,202.05Z" transform="translate(-242.3 -163.15)" style="fill:#006f53"/><path d="M453.59,201.73c-1.19,1.87-1.67,4-.59,5.81C454.55,206,454.62,203.82,453.59,201.73Z" transform="translate(-242.3 -163.15)" style="fill:#006f53"/><path d="M439.62,227.49c-1.2,1.86-1.68,4-.6,5.8C440.57,231.71,440.65,229.58,439.62,227.49Z" transform="translate(-242.3 -163.15)" style="fill:#006f53"/><path d="M410.18,223.43c-1.19,1.86-1.68,4-.59,5.8C411.14,227.65,411.21,225.52,410.18,223.43Z" transform="translate(-242.3 -163.15)" style="fill:#006f53"/><path d="M433.21,228.13c-2.06.82-3.67,2.26-3.86,4.38C431.53,232.13,432.83,230.43,433.21,228.13Z" transform="translate(-242.3 -163.15)" style="fill:#006f53"/><path d="M408,231.23c-.49,2.16-.22,4.31,1.42,5.66C410.34,234.88,409.68,232.85,408,231.23Z" transform="translate(-242.3 -163.15)" style="fill:#006f53"/><path d="M404.73,208.64c-1.92,1.49-3.2,3.51-2.75,5.8C404.17,213.37,405,211.19,404.73,208.64Z" transform="translate(-242.3 -163.15)" style="fill:#006f53"/><path d="M442.88,188.22c-2.13.59-3.9,1.84-4.32,3.92C440.77,192,442.25,190.46,442.88,188.22Z" transform="translate(-242.3 -163.15)" style="fill:#006f53"/><path d="M448.39,207.5c-2.89.94-5.25,2.76-5.69,5.65C445.72,212.83,447.66,210.62,448.39,207.5Z" transform="translate(-242.3 -163.15)" style="fill:#006f53"/><path d="M415.5,215.15c-2.09,2.34-3.25,5.13-2.16,7.78C415.87,221,416.46,218.15,415.5,215.15Z" transform="translate(-242.3 -163.15)" style="fill:#006f53"/><path d="M410.51,202.49c-2.08,2.41-3.21,5.24-2.11,7.87C410.9,208.39,411.48,205.48,410.51,202.49Z" transform="translate(-242.3 -163.15)" style="fill:#006f53"/><path d="M409.11,188.2c-2.69,1.7-4.6,4.08-4.32,6.91C407.76,194,409.16,191.34,409.11,188.2Z" transform="translate(-242.3 -163.15)" style="fill:#006f53"/><path d="M415.48,209.78c.34,3.06,1.67,5.76,4.44,6.81C420.21,213.53,418.42,211.16,415.48,209.78Z" transform="translate(-242.3 -163.15)" style="fill:#006f53"/><path d="M453.43,216.52c-2.65-.84-5.31-.76-7,1.06C448.83,218.92,451.36,218.36,453.43,216.52Z" transform="translate(-242.3 -163.15)" style="fill:#006f53"/><path d="M446.67,224c-2.74-.42-5.35.07-6.78,2.14C442.51,227.08,444.92,226.13,446.67,224Z" transform="translate(-242.3 -163.15)" style="fill:#006f53"/><path d="M450.34,201.13c-3.41.81-6.28,2.57-7.08,5.58C446.75,206.56,449.19,204.37,450.34,201.13Z" transform="translate(-242.3 -163.15)" style="fill:#006f53"/><path d="M450.64,192c-2.77.46-4.46,1.34-5.29,3.7C448.15,195.81,449.52,194.56,450.64,192Z" transform="translate(-242.3 -163.15)" style="fill:#006f53"/><path d="M408.14,183.7c-2.57,1.45-4.46,3.56-4.34,6.19A6.32,6.32,0,0,0,408.14,183.7Z" transform="translate(-242.3 -163.15)" style="fill:#006f53"/><path d="M397.29,205.72c-1.4,2.56-1.86,5.32-.32,7.48C398.85,211,398.77,208.22,397.29,205.72Z" transform="translate(-242.3 -163.15)" style="fill:#006f53"/><path d="M410.22,179.94c.56,2.63,1.95,4.88,4.44,5.59C414.65,182.86,412.89,180.93,410.22,179.94Z" transform="translate(-242.3 -163.15)" style="fill:#006f53"/><path d="M423.59,175.15c-.4,2.74.14,5.38,2.3,6.89C426.85,179.44,425.84,177,423.59,175.15Z" transform="translate(-242.3 -163.15)" style="fill:#006f53"/><path d="M399.71,180.32c.17,2.78,1.22,5.26,3.63,6.25C403.74,183.8,402.26,181.61,399.71,180.32Z" transform="translate(-242.3 -163.15)" style="fill:#006f53"/><path d="M414.66,180.94c2.1-1.91,3.15-3.73,2.44-6.19C414.66,176.22,414.1,178.17,414.66,180.94Z" transform="translate(-242.3 -163.15)" style="fill:#006f53"/><path d="M419.89,184.15c1.84-2.2,2.85-4.78,1.86-7.14A6.23,6.23,0,0,0,419.89,184.15Z" transform="translate(-242.3 -163.15)" style="fill:#006f53"/><path d="M437.63,215c-.17,3.35.79,6.48,3.58,8.07C442.06,219.83,440.55,217,437.63,215Z" transform="translate(-242.3 -163.15)" style="fill:#006f53"/><path d="M434.35,221.62c.09,2.77,1.09,5.29,3.5,6.42C438.33,225.33,436.89,223.07,434.35,221.62Z" transform="translate(-242.3 -163.15)" style="fill:#006f53"/><path d="M425.28,228.27c-.47,2.31-.13,4.59,1.64,6C427.85,232.12,427.1,230,425.28,228.27Z" transform="translate(-242.3 -163.15)" style="fill:#006f53"/><path d="M439.57,203c-.33,2.75.28,5.38,2.49,6.82C443,207.2,441.87,204.77,439.57,203Z" transform="translate(-242.3 -163.15)" style="fill:#006f53"/><path d="M433.77,192.76c-2.39.77-4.35,2.2-4.73,4.4A5.49,5.49,0,0,0,433.77,192.76Z" transform="translate(-242.3 -163.15)" style="fill:#006f53"/><path d="M409.18,192.77c1.29,2.16,3.15,3.77,5.45,3.75A5.85,5.85,0,0,0,409.18,192.77Z" transform="translate(-242.3 -163.15)" style="fill:#006f53"/><path d="M400.9,224c-.68,2.42-.57,4.88,1,6.54A5.83,5.83,0,0,0,400.9,224Z" transform="translate(-242.3 -163.15)" style="fill:#006f53"/><path d="M400.78,202.39c1.31,2.13,3.19,3.72,5.49,3.68A5.82,5.82,0,0,0,400.78,202.39Z" transform="translate(-242.3 -163.15)" style="fill:#006f53"/><path d="M406.76,204.1c2-2.31,3-5,2-7.5A6.49,6.49,0,0,0,406.76,204.1Z" transform="translate(-242.3 -163.15)" style="fill:#006f53"/><path d="M427.6,214.13c-.37,3.71.51,7.23,3.53,9.13C432.25,219.72,430.73,216.47,427.6,214.13Z" transform="translate(-242.3 -163.15)" style="fill:#006f53"/></svg>